<svg xmlns="http://www.w3.org/2000/svg" xmlns:xlink="http://www.w3.org/1999/xlink" data-name="Layer 1" viewBox="0 0 1100 1100"><defs><linearGradient id="a" x1="439.721" x2="439.721" y1="553.966" y2="319.161" gradientUnits="userSpaceOnUse"><stop offset="0" stop-color="#ffffff" stop-opacity="0" class="stopColorfff svgShape"/><stop offset="1" stop-color="#ffffff" class="stopColorfff svgShape"/></linearGradient><linearGradient id="d" x1="461.523" x2="461.523" y1="569.379" y2="334.573" xlink:href="#a"/><clipPath id="b"><path fill="none" d="M908.11125,450.81648c-97.11884-29.4828-180.84718-71.15329-275.71768-186.77675C537.52307,148.41567,282.5568,183.99186,208.4391,357.4278c-74.11754,173.43579-20.7528,333.53,68.18889,363.17831,88.94184,29.64677,146.56877,77.55912,176.21539,172.43114,29.64682,94.8705,250.84223,128.82551,326.248,47.19856,124.73686-135.02725,127.53882-98.07759,186.83237-218.14864C1025.21865,602.01764,1007.86275,481.09832,908.11125,450.81648Z"/></clipPath><clipPath id="c"><path fill="none" d="M357.62124,810.52433c-65.98945-74.57025-127.85931-78.40952-200.80015-62.67266-72.9392,15.73685,45.58833,142.31251,166.39547,204.39008S438.40071,901.80494,357.62124,810.52433Z"/></clipPath></defs><path fill="#f7e9df" d="M908.11125,450.81648c-97.11884-29.4828-180.84718-71.15329-275.71768-186.77675C537.52307,148.41567,282.5568,183.99186,208.4391,357.4278c-74.11754,173.43579-20.7528,333.53,68.18889,363.17831,88.94184,29.64677,146.56877,77.55912,176.21539,172.43114,29.64682,94.8705,250.84223,128.82551,326.248,47.19856,124.73686-135.02725,127.53882-98.07759,186.83237-218.14864C1025.21865,602.01764,1007.86275,481.09832,908.11125,450.81648Z" class="colorf7e9df svgShape"/><g clip-path="url(#b)" fill="#000000" class="color000 svgShape"><polygon fill="#fff4eb" points="292.38 444.004 292.38 418.052 335.427 418.052 335.427 294.011 347.294 294.011 347.294 418.052 393.663 418.052 393.663 444.004 418.498 444.004 418.498 964.089 239.386 964.089 239.386 444.004 292.38 444.004" class="colorfff4eb svgShape"/><rect width="24.837" height="467.838" x="239.386" y="444.004" fill="#ebd0cb" transform="rotate(180 251.804 677.923)" class="colorebd0cb svgShape"/><rect width="179.111" height="396.197" x="328.944" y="567.892" fill="#fff4eb" transform="rotate(180 418.499 765.99)" class="colorfff4eb svgShape"/><rect width="24.834" height="396.197" x="328.944" y="567.892" fill="#ebd0cb" transform="rotate(180 341.36 765.99)" class="colorebd0cb svgShape"/><rect width="179.111" height="396.198" x="785.875" y="567.89" fill="#fff4eb" transform="rotate(180 875.43 765.99)" class="colorfff4eb svgShape"/><rect width="24.836" height="396.198" x="785.875" y="567.89" fill="#ebd0cb" transform="rotate(180 798.293 765.99)" class="colorebd0cb svgShape"/><rect width="240.317" height="584.645" x="503.068" y="379.444" fill="#fff4eb" transform="rotate(180 623.227 671.766)" class="colorfff4eb svgShape"/><rect width="24.834" height="584.645" x="503.068" y="379.444" fill="#ebd0cb" transform="rotate(180 515.485 671.766)" class="colorebd0cb svgShape"/><rect width="37.532" height="15.577" x="680.54" y="407.445" fill="#ebd0cb" transform="rotate(180 699.306 415.234)" class="colorebd0cb svgShape"/><rect width="37.533" height="15.577" x="617.348" y="407.445" fill="#ebd0cb" transform="rotate(180 636.115 415.234)" class="colorebd0cb svgShape"/><rect width="37.532" height="15.579" x="680.54" y="464.162" fill="#ebd0cb" transform="rotate(180 699.306 471.951)" class="colorebd0cb svgShape"/><rect width="37.533" height="15.579" x="617.348" y="464.162" fill="#ebd0cb" transform="rotate(180 636.115 471.951)" class="colorebd0cb svgShape"/><rect width="37.532" height="15.579" x="554.158" y="464.162" fill="#ebd0cb" transform="rotate(180 572.924 471.951)" class="colorebd0cb svgShape"/><rect width="37.532" height="15.577" x="680.54" y="520.88" fill="#ebd0cb" transform="rotate(180 699.306 528.668)" class="colorebd0cb svgShape"/><rect width="37.532" height="15.577" x="554.158" y="520.88" fill="#ebd0cb" transform="rotate(180 572.924 528.668)" class="colorebd0cb svgShape"/><rect width="37.533" height="15.577" x="617.348" y="549.238" fill="#ebd0cb" transform="rotate(180 636.115 557.027)" class="colorebd0cb svgShape"/><rect width="37.532" height="15.58" x="680.54" y="577.596" fill="#ebd0cb" transform="rotate(180 699.306 585.386)" class="colorebd0cb svgShape"/><rect width="37.533" height="15.577" x="617.348" y="605.956" fill="#ebd0cb" transform="rotate(180 636.115 613.745)" class="colorebd0cb svgShape"/><rect width="37.532" height="15.577" x="680.54" y="634.315" fill="#ebd0cb" transform="rotate(180 699.306 642.103)" class="colorebd0cb svgShape"/><rect width="37.532" height="15.577" x="554.158" y="634.315" fill="#ebd0cb" transform="rotate(180 572.924 642.103)" class="colorebd0cb svgShape"/><rect width="37.532" height="15.578" x="680.54" y="686.727" fill="#ebd0cb" transform="rotate(180 699.306 694.516)" class="colorebd0cb svgShape"/><rect width="37.533" height="15.578" x="617.348" y="686.727" fill="#ebd0cb" transform="rotate(180 636.115 694.516)" class="colorebd0cb svgShape"/><rect width="37.532" height="15.578" x="680.54" y="743.444" fill="#ebd0cb" transform="rotate(180 699.306 751.233)" class="colorebd0cb svgShape"/><rect width="37.533" height="15.578" x="617.348" y="743.444" fill="#ebd0cb" transform="rotate(180 636.115 751.233)" class="colorebd0cb svgShape"/><rect width="37.532" height="15.578" x="554.158" y="743.444" fill="#ebd0cb" transform="rotate(180 572.924 751.233)" class="colorebd0cb svgShape"/><rect width="37.532" height="15.578" x="680.54" y="800.161" fill="#ebd0cb" transform="rotate(180 699.306 807.95)" class="colorebd0cb svgShape"/><rect width="37.532" height="15.578" x="554.158" y="800.161" fill="#ebd0cb" transform="rotate(180 572.924 807.95)" class="colorebd0cb svgShape"/><rect width="37.533" height="15.578" x="617.348" y="828.52" fill="#ebd0cb" transform="rotate(180 636.115 836.309)" class="colorebd0cb svgShape"/><rect width="37.532" height="15.578" x="554.158" y="828.52" fill="#ebd0cb" transform="rotate(180 572.924 836.309)" class="colorebd0cb svgShape"/><rect width="37.532" height="15.577" x="680.54" y="856.88" fill="#ebd0cb" transform="rotate(180 699.306 864.668)" class="colorebd0cb svgShape"/><rect width="37.533" height="15.578" x="617.348" y="885.237" fill="#ebd0cb" transform="rotate(180 636.115 893.026)" class="colorebd0cb svgShape"/><rect width="37.532" height="15.577" x="680.54" y="913.597" fill="#ebd0cb" transform="rotate(180 699.306 921.385)" class="colorebd0cb svgShape"/><rect width="37.532" height="15.577" x="554.158" y="913.597" fill="#ebd0cb" transform="rotate(180 572.924 921.385)" class="colorebd0cb svgShape"/><rect width="235.539" height="541.066" x="909.272" y="423.022" fill="#fff4eb" transform="rotate(180 1027.041 693.556)" class="colorfff4eb svgShape"/><rect width="24.341" height="541.066" x="909.272" y="423.022" fill="#ebd0cb" transform="rotate(180 921.442 693.556)" class="colorebd0cb svgShape"/><rect width="36.785" height="14.417" x="1083.215" y="448.936" fill="#ebd0cb" transform="rotate(180 1101.608 456.145)" class="colorebd0cb svgShape"/><rect width="36.785" height="14.417" x="1021.28" y="448.936" fill="#ebd0cb" transform="rotate(180 1039.673 456.145)" class="colorebd0cb svgShape"/><rect width="36.785" height="14.417" x="1083.215" y="501.425" fill="#ebd0cb" transform="rotate(180 1101.608 508.634)" class="colorebd0cb svgShape"/><rect width="36.785" height="14.417" x="1021.28" y="501.425" fill="#ebd0cb" transform="rotate(180 1039.673 508.634)" class="colorebd0cb svgShape"/><rect width="36.785" height="14.417" x="959.346" y="501.425" fill="#ebd0cb" transform="rotate(180 977.739 508.634)" class="colorebd0cb svgShape"/><rect width="36.785" height="14.417" x="1083.215" y="553.915" fill="#ebd0cb" transform="rotate(180 1101.608 561.124)" class="colorebd0cb svgShape"/><rect width="36.785" height="14.417" x="959.346" y="553.915" fill="#ebd0cb" transform="rotate(180 977.739 561.124)" class="colorebd0cb svgShape"/><rect width="36.785" height="14.416" x="1021.28" y="580.16" fill="#ebd0cb" transform="rotate(180 1039.673 587.369)" class="colorebd0cb svgShape"/><rect width="36.785" height="14.416" x="1083.215" y="606.406" fill="#ebd0cb" transform="rotate(180 1101.608 613.614)" class="colorebd0cb svgShape"/><rect width="36.785" height="14.417" x="1021.28" y="632.65" fill="#ebd0cb" transform="rotate(180 1039.673 639.859)" class="colorebd0cb svgShape"/><rect width="36.785" height="14.414" x="1083.215" y="658.897" fill="#ebd0cb" transform="rotate(180 1101.608 666.104)" class="colorebd0cb svgShape"/><rect width="36.785" height="14.414" x="959.346" y="658.897" fill="#ebd0cb" transform="rotate(180 977.739 666.104)" class="colorebd0cb svgShape"/><rect width="36.785" height="14.416" x="1083.215" y="707.401" fill="#ebd0cb" transform="rotate(180 1101.608 714.61)" class="colorebd0cb svgShape"/><rect width="36.785" height="14.416" x="1021.28" y="707.401" fill="#ebd0cb" transform="rotate(180 1039.673 714.61)" class="colorebd0cb svgShape"/><rect width="36.785" height="14.416" x="1083.215" y="759.89" fill="#ebd0cb" transform="rotate(180 1101.608 767.098)" class="colorebd0cb svgShape"/><rect width="36.785" height="14.416" x="1021.28" y="759.89" fill="#ebd0cb" transform="rotate(180 1039.673 767.098)" class="colorebd0cb svgShape"/><rect width="36.785" height="14.416" x="959.346" y="759.89" fill="#ebd0cb" transform="rotate(180 977.739 767.098)" class="colorebd0cb svgShape"/><rect width="36.785" height="14.416" x="1083.215" y="812.381" fill="#ebd0cb" transform="rotate(180 1101.608 819.589)" class="colorebd0cb svgShape"/><rect width="36.785" height="14.416" x="959.346" y="812.381" fill="#ebd0cb" transform="rotate(180 977.739 819.589)" class="colorebd0cb svgShape"/><rect width="36.785" height="14.417" x="1021.28" y="838.625" fill="#ebd0cb" transform="rotate(180 1039.673 845.833)" class="colorebd0cb svgShape"/><rect width="36.785" height="14.417" x="959.346" y="838.625" fill="#ebd0cb" transform="rotate(180 977.739 845.833)" class="colorebd0cb svgShape"/><rect width="36.785" height="14.416" x="1083.215" y="864.87" fill="#ebd0cb" transform="rotate(180 1101.608 872.078)" class="colorebd0cb svgShape"/><rect width="36.785" height="14.416" x="1021.28" y="891.115" fill="#ebd0cb" transform="rotate(180 1039.673 898.323)" class="colorebd0cb svgShape"/><rect width="36.785" height="14.417" x="1083.215" y="917.359" fill="#ebd0cb" transform="rotate(180 1101.608 924.568)" class="colorebd0cb svgShape"/><rect width="36.785" height="14.417" x="959.346" y="917.359" fill="#ebd0cb" transform="rotate(180 977.739 924.568)" class="colorebd0cb svgShape"/><rect width="151.696" height="369.046" x="119.705" y="595.043" fill="#fff4eb" transform="rotate(180 195.553 779.566)" class="colorfff4eb svgShape"/><rect width="15.677" height="369.046" x="119.705" y="595.043" fill="#ebd0cb" transform="rotate(180 127.544 779.566)" class="colorebd0cb svgShape"/><rect width="23.691" height="9.832" x="231.731" y="612.719" fill="#ebd0cb" transform="rotate(180 243.577 617.635)" class="colorebd0cb svgShape"/><rect width="23.691" height="9.832" x="191.843" y="612.719" fill="#ebd0cb" transform="rotate(180 203.689 617.635)" class="colorebd0cb svgShape"/><rect width="23.691" height="9.833" x="231.731" y="648.52" fill="#ebd0cb" transform="rotate(180 243.577 653.437)" class="colorebd0cb svgShape"/><rect width="23.691" height="9.833" x="191.843" y="648.52" fill="#ebd0cb" transform="rotate(180 203.689 653.437)" class="colorebd0cb svgShape"/><rect width="23.691" height="9.833" x="151.955" y="648.52" fill="#ebd0cb" transform="rotate(180 163.8 653.437)" class="colorebd0cb svgShape"/><rect width="23.691" height="9.832" x="231.731" y="684.323" fill="#ebd0cb" transform="rotate(180 243.577 689.239)" class="colorebd0cb svgShape"/><rect width="23.691" height="9.832" x="151.955" y="684.323" fill="#ebd0cb" transform="rotate(180 163.8 689.239)" class="colorebd0cb svgShape"/><rect width="23.691" height="9.832" x="191.843" y="702.223" fill="#ebd0cb" transform="rotate(180 203.689 707.14)" class="colorebd0cb svgShape"/><rect width="23.691" height="9.833" x="231.731" y="720.124" fill="#ebd0cb" transform="rotate(180 243.577 725.04)" class="colorebd0cb svgShape"/><rect width="23.691" height="9.833" x="191.843" y="738.024" fill="#ebd0cb" transform="rotate(180 203.689 742.941)" class="colorebd0cb svgShape"/><rect width="23.691" height="9.833" x="231.731" y="755.925" fill="#ebd0cb" transform="rotate(180 243.577 760.842)" class="colorebd0cb svgShape"/><rect width="23.691" height="9.833" x="151.955" y="755.925" fill="#ebd0cb" transform="rotate(180 163.8 760.842)" class="colorebd0cb svgShape"/><rect width="23.691" height="9.832" x="231.731" y="789.01" fill="#ebd0cb" transform="rotate(180 243.577 793.926)" class="colorebd0cb svgShape"/><rect width="23.691" height="9.832" x="191.843" y="789.01" fill="#ebd0cb" transform="rotate(180 203.689 793.926)" class="colorebd0cb svgShape"/><rect width="23.691" height="9.833" x="231.731" y="824.811" fill="#ebd0cb" transform="rotate(180 243.577 829.728)" class="colorebd0cb svgShape"/><rect width="23.691" height="9.833" x="191.843" y="824.811" fill="#ebd0cb" transform="rotate(180 203.689 829.728)" class="colorebd0cb svgShape"/><rect width="23.691" height="9.833" x="151.955" y="824.811" fill="#ebd0cb" transform="rotate(180 163.8 829.728)" class="colorebd0cb svgShape"/><rect width="23.691" height="9.832" x="231.731" y="860.614" fill="#ebd0cb" transform="rotate(180 243.577 865.53)" class="colorebd0cb svgShape"/><rect width="23.691" height="9.832" x="151.955" y="860.614" fill="#ebd0cb" transform="rotate(180 163.8 865.53)" class="colorebd0cb svgShape"/><rect width="23.691" height="9.832" x="191.843" y="878.514" fill="#ebd0cb" transform="rotate(180 203.689 883.43)" class="colorebd0cb svgShape"/><rect width="23.691" height="9.832" x="151.955" y="878.514" fill="#ebd0cb" transform="rotate(180 163.8 883.43)" class="colorebd0cb svgShape"/><rect width="23.691" height="9.833" x="231.731" y="896.415" fill="#ebd0cb" transform="rotate(180 243.577 901.332)" class="colorebd0cb svgShape"/><rect width="23.691" height="9.833" x="191.843" y="914.315" fill="#ebd0cb" transform="rotate(180 203.689 919.232)" class="colorebd0cb svgShape"/><rect width="23.691" height="9.833" x="231.731" y="932.216" fill="#ebd0cb" transform="rotate(180 243.577 937.133)" class="colorebd0cb svgShape"/><rect width="23.691" height="9.833" x="151.955" y="932.216" fill="#ebd0cb" transform="rotate(180 163.8 937.133)" class="colorebd0cb svgShape"/><rect width="725.708" height="804.036" x="-14.807" y="175.655" fill="#ffffff" opacity=".14" class="colorfff svgShape"/><rect width="15.876" height="823.61" x="702.966" y="166.457" fill="#ffffff" class="colorfff svgShape"/><polygon fill="#ffffff" points="235.035 965.171 178.711 965.171 480.643 184.855 536.965 184.855 235.035 965.171" opacity=".6" class="colorfff svgShape"/><polygon fill="#ffffff" points="135.582 965.171 107.42 965.171 409.351 184.855 437.513 184.855 135.582 965.171" opacity=".6" class="colorfff svgShape"/><polygon fill="#ffffff" points="471.844 965.171 443.681 965.171 702.54 268.631 702.54 324.75 471.844 965.171" opacity=".6" class="colorfff svgShape"/><rect width="15.876" height="815.304" x="219.158" y="170.61" fill="#ffffff" class="colorfff svgShape"/><rect width="21.286" height="741.587" x="337.403" y="610.34" fill="#ffffff" transform="rotate(-90 348.046 981.134)" class="colorfff svgShape"/><rect width="15.876" height="815.304" x="461.062" y="170.61" fill="#ffffff" class="colorfff svgShape"/><rect width="6.496" height="709.67" x="344.797" y="613.583" fill="#ffffff" transform="rotate(90 348.045 968.419)" class="colorfff svgShape"/><rect width="18.399" height="741.587" x="338.846" y="-195.138" fill="#ffffff" transform="rotate(-90 348.046 175.655)" class="colorfff svgShape"/><rect width="6.496" height="709.968" x="344.797" y="-166.881" fill="#ffffff" transform="rotate(90 348.045 188.103)" class="colorfff svgShape"/><rect width="725.71" height="804.036" x="710.969" y="175.655" fill="#ffffff" opacity=".14" class="colorfff svgShape"/><rect width="15.876" height="823.61" x="703.033" y="166.457" fill="#ffffff" class="colorfff svgShape"/><polygon fill="#ffffff" points="834.737 965.171 778.413 965.171 1080.343 184.855 1136.667 184.855 834.737 965.171" opacity=".6" class="colorfff svgShape"/><polygon fill="#ffffff" points="735.284 965.171 707.123 965.171 1009.053 184.855 1037.214 184.855 735.284 965.171" opacity=".6" class="colorfff svgShape"/><rect width="15.876" height="815.304" x="944.936" y="170.61" fill="#ffffff" class="colorfff svgShape"/><rect width="21.286" height="741.587" x="1063.181" y="610.34" fill="#ffffff" transform="rotate(-90 1073.823 981.134)" class="colorfff svgShape"/><rect width="6.496" height="709.67" x="1070.575" y="613.583" fill="#ffffff" transform="rotate(90 1073.823 968.419)" class="colorfff svgShape"/><rect width="18.399" height="741.587" x="1064.624" y="-195.138" fill="#ffffff" transform="rotate(-90 1073.823 175.655)" class="colorfff svgShape"/><rect width="6.496" height="709.97" x="1070.576" y="-166.882" fill="#ffffff" transform="rotate(90 1073.824 188.103)" class="colorfff svgShape"/><rect width="9.2" height="1493.44" x="719.372" y="-430.636" fill="#ffffff" transform="rotate(-90 723.972 316.084)" class="colorfff svgShape"/><rect width="9.2" height="1493.44" x="719.372" y="-185.318" fill="#ffffff" transform="rotate(-90 723.972 561.402)" class="colorfff svgShape"/><rect width="9.201" height="1493.44" x="719.371" y="59.999" fill="#ffffff" transform="rotate(-90 723.972 806.72)" class="colorfff svgShape"/><path fill="#ebd0cb" d="M441.67007,367.55635a54.75558,54.75558,0,0,1-54.69292-54.69293h2.57324a52.1197,52.1197,0,1,0,104.2394,0H496.363A54.75647,54.75647,0,0,1,441.67007,367.55635Z" class="colorebd0cb svgShape"/><polygon fill="#ebd0cb" points="440.933 270.078 371.948 327.23 524.046 327.23 440.933 270.078" class="colorebd0cb svgShape"/><polygon fill="url(#a)" points="406.65 319.161 333.796 553.966 545.645 553.966 476.797 319.161 406.65 319.161" opacity=".22"/><rect width="6.698" height="106.098" x="437.767" y="181.577" fill="#fff4eb" class="colorfff4eb svgShape"/><path fill="#f4bf62" d="M435.1071,277.64177h12.01644a5.2138,5.2138,0,0,1,5.2138,5.2138v19.0979a0,0,0,0,1,0,0H429.8927a0,0,0,0,1,0,0v-19.0973A5.2144,5.2144,0,0,1,435.1071,277.64177Z" class="colorf4bf62 svgShape"/><path fill="#ebd0cb" d="M453.88678,329.15738a13.07076,13.07076,0,1,0-13.07,13.07A13.07048,13.07048,0,0,0,453.88678,329.15738Z" class="colorebd0cb svgShape"/><path fill="#ffffff" d="M440.99489,337.33681c-3.09434-.55878-7.34757-2.99191-8.146-6.26268-.28493-1.16573-2.08649-.67229-1.80019.49708.95283,3.90006,5.70926,6.89045,9.45047,7.56564C441.67311,339.34991,442.17764,337.55048,440.99489,337.33681Z" class="colorfff svgShape"/><polygon fill="#fff4eb" points="440.933 270.078 364.883 327.23 516.982 327.23 440.933 270.078" class="colorfff4eb svgShape"/><rect width="14.13" height="14.13" x="433.868" y="263.012" fill="#ebd0cb" rx="2.588" class="colorebd0cb svgShape"/><path fill="#ffffff" d="M366.30139,249.43381a33.15947,33.15947,0,1,1-33.15947-33.16023A33.15989,33.15989,0,0,1,366.30139,249.43381Z" class="colorfff svgShape"/></g><path fill="#f7e9df" d="M357.62124,810.52433c-65.98945-74.57025-127.85931-78.40952-200.80015-62.67266-72.9392,15.73685,45.58833,142.31251,166.39547,204.39008S438.40071,901.80494,357.62124,810.52433Z" class="colorf7e9df svgShape"/><g clip-path="url(#c)" fill="#000000" class="color000 svgShape"><polygon fill="#fff4eb" points="292.38 444.004 292.38 418.052 335.427 418.052 335.427 294.011 347.294 294.011 347.294 418.052 393.663 418.052 393.663 444.004 418.498 444.004 418.498 964.089 239.386 964.089 239.386 444.004 292.38 444.004" class="colorfff4eb svgShape"/><rect width="24.837" height="467.838" x="239.386" y="444.004" fill="#ebd0cb" transform="rotate(180 251.804 677.923)" class="colorebd0cb svgShape"/><rect width="179.111" height="396.197" x="328.944" y="567.892" fill="#fff4eb" transform="rotate(180 418.499 765.99)" class="colorfff4eb svgShape"/><rect width="24.834" height="396.197" x="328.944" y="567.892" fill="#ebd0cb" transform="rotate(180 341.36 765.99)" class="colorebd0cb svgShape"/><rect width="179.111" height="396.198" x="785.875" y="567.89" fill="#fff4eb" transform="rotate(180 875.43 765.99)" class="colorfff4eb svgShape"/><rect width="24.836" height="396.198" x="785.875" y="567.89" fill="#ebd0cb" transform="rotate(180 798.293 765.99)" class="colorebd0cb svgShape"/><rect width="240.317" height="584.645" x="503.068" y="379.444" fill="#fff4eb" transform="rotate(180 623.227 671.766)" class="colorfff4eb svgShape"/><rect width="24.834" height="584.645" x="503.068" y="379.444" fill="#ebd0cb" transform="rotate(180 515.485 671.766)" class="colorebd0cb svgShape"/><rect width="37.532" height="15.577" x="680.54" y="407.445" fill="#ebd0cb" transform="rotate(180 699.306 415.234)" class="colorebd0cb svgShape"/><rect width="37.533" height="15.577" x="617.348" y="407.445" fill="#ebd0cb" transform="rotate(180 636.115 415.234)" class="colorebd0cb svgShape"/><rect width="37.532" height="15.579" x="680.54" y="464.162" fill="#ebd0cb" transform="rotate(180 699.306 471.951)" class="colorebd0cb svgShape"/><rect width="37.533" height="15.579" x="617.348" y="464.162" fill="#ebd0cb" transform="rotate(180 636.115 471.951)" class="colorebd0cb svgShape"/><rect width="37.532" height="15.579" x="554.158" y="464.162" fill="#ebd0cb" transform="rotate(180 572.924 471.951)" class="colorebd0cb svgShape"/><rect width="37.532" height="15.577" x="680.54" y="520.88" fill="#ebd0cb" transform="rotate(180 699.306 528.668)" class="colorebd0cb svgShape"/><rect width="37.532" height="15.577" x="554.158" y="520.88" fill="#ebd0cb" transform="rotate(180 572.924 528.668)" class="colorebd0cb svgShape"/><rect width="37.533" height="15.577" x="617.348" y="549.238" fill="#ebd0cb" transform="rotate(180 636.115 557.027)" class="colorebd0cb svgShape"/><rect width="37.532" height="15.58" x="680.54" y="577.596" fill="#ebd0cb" transform="rotate(180 699.306 585.386)" class="colorebd0cb svgShape"/><rect width="37.533" height="15.577" x="617.348" y="605.956" fill="#ebd0cb" transform="rotate(180 636.115 613.745)" class="colorebd0cb svgShape"/><rect width="37.532" height="15.577" x="680.54" y="634.315" fill="#ebd0cb" transform="rotate(180 699.306 642.103)" class="colorebd0cb svgShape"/><rect width="37.532" height="15.577" x="554.158" y="634.315" fill="#ebd0cb" transform="rotate(180 572.924 642.103)" class="colorebd0cb svgShape"/><rect width="37.532" height="15.578" x="680.54" y="686.727" fill="#ebd0cb" transform="rotate(180 699.306 694.516)" class="colorebd0cb svgShape"/><rect width="37.533" height="15.578" x="617.348" y="686.727" fill="#ebd0cb" transform="rotate(180 636.115 694.516)" class="colorebd0cb svgShape"/><rect width="37.532" height="15.578" x="680.54" y="743.444" fill="#ebd0cb" transform="rotate(180 699.306 751.233)" class="colorebd0cb svgShape"/><rect width="37.533" height="15.578" x="617.348" y="743.444" fill="#ebd0cb" transform="rotate(180 636.115 751.233)" class="colorebd0cb svgShape"/><rect width="37.532" height="15.578" x="554.158" y="743.444" fill="#ebd0cb" transform="rotate(180 572.924 751.233)" class="colorebd0cb svgShape"/><rect width="37.532" height="15.578" x="680.54" y="800.161" fill="#ebd0cb" transform="rotate(180 699.306 807.95)" class="colorebd0cb svgShape"/><rect width="37.532" height="15.578" x="554.158" y="800.161" fill="#ebd0cb" transform="rotate(180 572.924 807.95)" class="colorebd0cb svgShape"/><rect width="37.533" height="15.578" x="617.348" y="828.52" fill="#ebd0cb" transform="rotate(180 636.115 836.309)" class="colorebd0cb svgShape"/><rect width="37.532" height="15.578" x="554.158" y="828.52" fill="#ebd0cb" transform="rotate(180 572.924 836.309)" class="colorebd0cb svgShape"/><rect width="37.532" height="15.577" x="680.54" y="856.88" fill="#ebd0cb" transform="rotate(180 699.306 864.668)" class="colorebd0cb svgShape"/><rect width="37.533" height="15.578" x="617.348" y="885.237" fill="#ebd0cb" transform="rotate(180 636.115 893.026)" class="colorebd0cb svgShape"/><rect width="37.532" height="15.577" x="680.54" y="913.597" fill="#ebd0cb" transform="rotate(180 699.306 921.385)" class="colorebd0cb svgShape"/><rect width="37.532" height="15.577" x="554.158" y="913.597" fill="#ebd0cb" transform="rotate(180 572.924 921.385)" class="colorebd0cb svgShape"/><rect width="235.539" height="541.066" x="909.272" y="423.022" fill="#fff4eb" transform="rotate(180 1027.041 693.556)" class="colorfff4eb svgShape"/><rect width="24.341" height="541.066" x="909.272" y="423.022" fill="#ebd0cb" transform="rotate(180 921.442 693.556)" class="colorebd0cb svgShape"/><rect width="36.785" height="14.417" x="1083.215" y="448.936" fill="#ebd0cb" transform="rotate(180 1101.608 456.145)" class="colorebd0cb svgShape"/><rect width="36.785" height="14.417" x="1021.28" y="448.936" fill="#ebd0cb" transform="rotate(180 1039.673 456.145)" class="colorebd0cb svgShape"/><rect width="36.785" height="14.417" x="1083.215" y="501.425" fill="#ebd0cb" transform="rotate(180 1101.608 508.634)" class="colorebd0cb svgShape"/><rect width="36.785" height="14.417" x="1021.28" y="501.425" fill="#ebd0cb" transform="rotate(180 1039.673 508.634)" class="colorebd0cb svgShape"/><rect width="36.785" height="14.417" x="959.346" y="501.425" fill="#ebd0cb" transform="rotate(180 977.739 508.634)" class="colorebd0cb svgShape"/><rect width="36.785" height="14.417" x="1083.215" y="553.915" fill="#ebd0cb" transform="rotate(180 1101.608 561.124)" class="colorebd0cb svgShape"/><rect width="36.785" height="14.417" x="959.346" y="553.915" fill="#ebd0cb" transform="rotate(180 977.739 561.124)" class="colorebd0cb svgShape"/><rect width="36.785" height="14.416" x="1021.28" y="580.16" fill="#ebd0cb" transform="rotate(180 1039.673 587.369)" class="colorebd0cb svgShape"/><rect width="36.785" height="14.416" x="1083.215" y="606.406" fill="#ebd0cb" transform="rotate(180 1101.608 613.614)" class="colorebd0cb svgShape"/><rect width="36.785" height="14.417" x="1021.28" y="632.65" fill="#ebd0cb" transform="rotate(180 1039.673 639.859)" class="colorebd0cb svgShape"/><rect width="36.785" height="14.414" x="1083.215" y="658.897" fill="#ebd0cb" transform="rotate(180 1101.608 666.104)" class="colorebd0cb svgShape"/><rect width="36.785" height="14.414" x="959.346" y="658.897" fill="#ebd0cb" transform="rotate(180 977.739 666.104)" class="colorebd0cb svgShape"/><rect width="36.785" height="14.416" x="1083.215" y="707.401" fill="#ebd0cb" transform="rotate(180 1101.608 714.61)" class="colorebd0cb svgShape"/><rect width="36.785" height="14.416" x="1021.28" y="707.401" fill="#ebd0cb" transform="rotate(180 1039.673 714.61)" class="colorebd0cb svgShape"/><rect width="36.785" height="14.416" x="1083.215" y="759.89" fill="#ebd0cb" transform="rotate(180 1101.608 767.098)" class="colorebd0cb svgShape"/><rect width="36.785" height="14.416" x="1021.28" y="759.89" fill="#ebd0cb" transform="rotate(180 1039.673 767.098)" class="colorebd0cb svgShape"/><rect width="36.785" height="14.416" x="959.346" y="759.89" fill="#ebd0cb" transform="rotate(180 977.739 767.098)" class="colorebd0cb svgShape"/><rect width="36.785" height="14.416" x="1083.215" y="812.381" fill="#ebd0cb" transform="rotate(180 1101.608 819.589)" class="colorebd0cb svgShape"/><rect width="36.785" height="14.416" x="959.346" y="812.381" fill="#ebd0cb" transform="rotate(180 977.739 819.589)" class="colorebd0cb svgShape"/><rect width="36.785" height="14.417" x="1021.28" y="838.625" fill="#ebd0cb" transform="rotate(180 1039.673 845.833)" class="colorebd0cb svgShape"/><rect width="36.785" height="14.417" x="959.346" y="838.625" fill="#ebd0cb" transform="rotate(180 977.739 845.833)" class="colorebd0cb svgShape"/><rect width="36.785" height="14.416" x="1083.215" y="864.87" fill="#ebd0cb" transform="rotate(180 1101.608 872.078)" class="colorebd0cb svgShape"/><rect width="36.785" height="14.416" x="1021.28" y="891.115" fill="#ebd0cb" transform="rotate(180 1039.673 898.323)" class="colorebd0cb svgShape"/><rect width="36.785" height="14.417" x="1083.215" y="917.359" fill="#ebd0cb" transform="rotate(180 1101.608 924.568)" class="colorebd0cb svgShape"/><rect width="36.785" height="14.417" x="959.346" y="917.359" fill="#ebd0cb" transform="rotate(180 977.739 924.568)" class="colorebd0cb svgShape"/><rect width="151.696" height="369.046" x="119.705" y="595.043" fill="#fff4eb" transform="rotate(180 195.553 779.566)" class="colorfff4eb svgShape"/><rect width="15.677" height="369.046" x="119.705" y="595.043" fill="#ebd0cb" transform="rotate(180 127.544 779.566)" class="colorebd0cb svgShape"/><rect width="23.691" height="9.832" x="231.731" y="612.719" fill="#ebd0cb" transform="rotate(180 243.577 617.635)" class="colorebd0cb svgShape"/><rect width="23.691" height="9.832" x="191.843" y="612.719" fill="#ebd0cb" transform="rotate(180 203.689 617.635)" class="colorebd0cb svgShape"/><rect width="23.691" height="9.833" x="231.731" y="648.52" fill="#ebd0cb" transform="rotate(180 243.577 653.437)" class="colorebd0cb svgShape"/><rect width="23.691" height="9.833" x="191.843" y="648.52" fill="#ebd0cb" transform="rotate(180 203.689 653.437)" class="colorebd0cb svgShape"/><rect width="23.691" height="9.833" x="151.955" y="648.52" fill="#ebd0cb" transform="rotate(180 163.8 653.437)" class="colorebd0cb svgShape"/><rect width="23.691" height="9.832" x="231.731" y="684.323" fill="#ebd0cb" transform="rotate(180 243.577 689.239)" class="colorebd0cb svgShape"/><rect width="23.691" height="9.832" x="151.955" y="684.323" fill="#ebd0cb" transform="rotate(180 163.8 689.239)" class="colorebd0cb svgShape"/><rect width="23.691" height="9.832" x="191.843" y="702.223" fill="#ebd0cb" transform="rotate(180 203.689 707.14)" class="colorebd0cb svgShape"/><rect width="23.691" height="9.833" x="231.731" y="720.124" fill="#ebd0cb" transform="rotate(180 243.577 725.04)" class="colorebd0cb svgShape"/><rect width="23.691" height="9.833" x="191.843" y="738.024" fill="#ebd0cb" transform="rotate(180 203.689 742.941)" class="colorebd0cb svgShape"/><rect width="23.691" height="9.833" x="231.731" y="755.925" fill="#ebd0cb" transform="rotate(180 243.577 760.842)" class="colorebd0cb svgShape"/><rect width="23.691" height="9.833" x="151.955" y="755.925" fill="#ebd0cb" transform="rotate(180 163.8 760.842)" class="colorebd0cb svgShape"/><rect width="23.691" height="9.832" x="231.731" y="789.01" fill="#ebd0cb" transform="rotate(180 243.577 793.926)" class="colorebd0cb svgShape"/><rect width="23.691" height="9.832" x="191.843" y="789.01" fill="#ebd0cb" transform="rotate(180 203.689 793.926)" class="colorebd0cb svgShape"/><rect width="23.691" height="9.833" x="231.731" y="824.811" fill="#ebd0cb" transform="rotate(180 243.577 829.728)" class="colorebd0cb svgShape"/><rect width="23.691" height="9.833" x="191.843" y="824.811" fill="#ebd0cb" transform="rotate(180 203.689 829.728)" class="colorebd0cb svgShape"/><rect width="23.691" height="9.833" x="151.955" y="824.811" fill="#ebd0cb" transform="rotate(180 163.8 829.728)" class="colorebd0cb svgShape"/><rect width="23.691" height="9.832" x="231.731" y="860.614" fill="#ebd0cb" transform="rotate(180 243.577 865.53)" class="colorebd0cb svgShape"/><rect width="23.691" height="9.832" x="151.955" y="860.614" fill="#ebd0cb" transform="rotate(180 163.8 865.53)" class="colorebd0cb svgShape"/><rect width="23.691" height="9.832" x="191.843" y="878.514" fill="#ebd0cb" transform="rotate(180 203.689 883.43)" class="colorebd0cb svgShape"/><rect width="23.691" height="9.832" x="151.955" y="878.514" fill="#ebd0cb" transform="rotate(180 163.8 883.43)" class="colorebd0cb svgShape"/><rect width="23.691" height="9.833" x="231.731" y="896.415" fill="#ebd0cb" transform="rotate(180 243.577 901.332)" class="colorebd0cb svgShape"/><rect width="23.691" height="9.833" x="191.843" y="914.315" fill="#ebd0cb" transform="rotate(180 203.689 919.232)" class="colorebd0cb svgShape"/><rect width="23.691" height="9.833" x="231.731" y="932.216" fill="#ebd0cb" transform="rotate(180 243.577 937.133)" class="colorebd0cb svgShape"/><rect width="23.691" height="9.833" x="151.955" y="932.216" fill="#ebd0cb" transform="rotate(180 163.8 937.133)" class="colorebd0cb svgShape"/><rect width="725.708" height="804.036" x="-14.807" y="175.655" fill="#ffffff" opacity=".14" class="colorfff svgShape"/><rect width="15.876" height="823.61" x="702.966" y="166.457" fill="#ffffff" class="colorfff svgShape"/><polygon fill="#ffffff" points="235.035 965.171 178.711 965.171 480.643 184.855 536.965 184.855 235.035 965.171" opacity=".6" class="colorfff svgShape"/><polygon fill="#ffffff" points="135.582 965.171 107.42 965.171 409.351 184.855 437.513 184.855 135.582 965.171" opacity=".6" class="colorfff svgShape"/><polygon fill="#ffffff" points="471.844 965.171 443.681 965.171 702.54 268.631 702.54 324.75 471.844 965.171" opacity=".6" class="colorfff svgShape"/><rect width="15.876" height="815.304" x="219.158" y="170.61" fill="#ffffff" class="colorfff svgShape"/><rect width="21.286" height="741.587" x="337.403" y="610.34" fill="#ffffff" transform="rotate(-90 348.046 981.134)" class="colorfff svgShape"/><rect width="15.876" height="815.304" x="461.062" y="170.61" fill="#ffffff" class="colorfff svgShape"/><rect width="6.496" height="709.67" x="344.797" y="613.583" fill="#ffffff" transform="rotate(90 348.045 968.419)" class="colorfff svgShape"/><rect width="18.399" height="741.587" x="338.846" y="-195.138" fill="#ffffff" transform="rotate(-90 348.046 175.655)" class="colorfff svgShape"/><rect width="6.496" height="709.968" x="344.797" y="-166.881" fill="#ffffff" transform="rotate(90 348.045 188.103)" class="colorfff svgShape"/><rect width="725.71" height="804.036" x="710.969" y="175.655" fill="#ffffff" opacity=".14" class="colorfff svgShape"/><rect width="15.876" height="823.61" x="703.033" y="166.457" fill="#ffffff" class="colorfff svgShape"/><polygon fill="#ffffff" points="834.737 965.171 778.413 965.171 1080.343 184.855 1136.667 184.855 834.737 965.171" opacity=".6" class="colorfff svgShape"/><polygon fill="#ffffff" points="735.284 965.171 707.123 965.171 1009.053 184.855 1037.214 184.855 735.284 965.171" opacity=".6" class="colorfff svgShape"/><rect width="15.876" height="815.304" x="944.936" y="170.61" fill="#ffffff" class="colorfff svgShape"/><rect width="21.286" height="741.587" x="1063.181" y="610.34" fill="#ffffff" transform="rotate(-90 1073.823 981.134)" class="colorfff svgShape"/><rect width="6.496" height="709.67" x="1070.575" y="613.583" fill="#ffffff" transform="rotate(90 1073.823 968.419)" class="colorfff svgShape"/><rect width="18.399" height="741.587" x="1064.624" y="-195.138" fill="#ffffff" transform="rotate(-90 1073.823 175.655)" class="colorfff svgShape"/><rect width="6.496" height="709.97" x="1070.576" y="-166.882" fill="#ffffff" transform="rotate(90 1073.824 188.103)" class="colorfff svgShape"/><rect width="9.2" height="1493.44" x="719.372" y="-430.636" fill="#ffffff" transform="rotate(-90 723.972 316.084)" class="colorfff svgShape"/><rect width="9.2" height="1493.44" x="719.372" y="-185.318" fill="#ffffff" transform="rotate(-90 723.972 561.402)" class="colorfff svgShape"/><rect width="9.201" height="1493.44" x="719.371" y="59.999" fill="#ffffff" transform="rotate(-90 723.972 806.72)" class="colorfff svgShape"/><path fill="#ebd0cb" d="M463.47224,382.96815a54.75559,54.75559,0,0,1-54.693-54.69293h2.57324a52.1197,52.1197,0,1,0,104.2394,0h2.57325A54.75559,54.75559,0,0,1,463.47224,382.96815Z" class="colorebd0cb svgShape"/><polygon fill="#ebd0cb" points="462.735 285.489 393.75 342.642 545.85 342.642 462.735 285.489" class="colorebd0cb svgShape"/><polygon fill="url(#d)" points="428.452 334.573 355.598 569.379 567.447 569.379 498.6 334.573 428.452 334.573" opacity=".22"/><rect width="6.698" height="75.705" x="459.569" y="227.382" fill="#fff4eb" class="colorfff4eb svgShape"/><path fill="#f4bf62" d="M456.91074,293.05357h12.01548a5.2148,5.2148,0,0,1,5.2148,5.2148v19.0969a0,0,0,0,1,0,0H451.69634a0,0,0,0,1,0,0V298.268A5.2144,5.2144,0,0,1,456.91074,293.05357Z" class="colorf4bf62 svgShape"/><path fill="#ebd0cb" d="M475.6888,344.56918a13.06993,13.06993,0,1,0-13.06985,13.07A13.07035,13.07035,0,0,0,475.6888,344.56918Z" class="colorebd0cb svgShape"/><path fill="#ffffff" d="M462.79705,352.74861c-3.09433-.55878-7.34608-2.99191-8.14451-6.26268-.28493-1.16573-2.08665-.67229-1.80171.49709.95283,3.9,5.71062,6.89044,9.45051,7.56563C463.47513,354.76171,463.97981,352.96228,462.79705,352.74861Z" class="colorfff svgShape"/><polygon fill="#fff4eb" points="462.735 285.489 386.686 342.642 538.786 342.642 462.735 285.489" class="colorfff4eb svgShape"/><path fill="#ebd0cb" d="M458.25836,278.42394h8.95382a2.58793,2.58793,0,0,1,2.58793,2.58793v8.95444a2.5879,2.5879,0,0,1-2.5879,2.5879h-8.95385a2.5878,2.5878,0,0,1-2.5878-2.5878v-8.95467A2.5878,2.5878,0,0,1,458.25836,278.42394Z" class="colorebd0cb svgShape"/></g><path fill="#c7b757" d="M765.64145,884.98623c-2.272-8.0539-7.21687-10.501-11.37664-17.09026-7.26885-11.5087-.23737-22.88094-5.36623-35.2905a38.2,38.2,0,0,0-2.10747-4.25915,31.90167,31.90167,0,0,0-2.99175-7.15168c-5.62306-10.36607-6.44671-13.44247-5.52367-26.042,1.11452-15.25011.77168-30.11133-3.5127-44.92059-5.10956-17.66014-26.88342-30.47483-32.24084-4.60047-3.32729,16.0648,9.91048,24.68554,13.00314,38.84772,2.83159,12.95724-5.90647,22.63916,1.05966,35.77451,2.56595,4.83647,7.05062,8.21863,9.91336,12.75831,9.01418,14.28543,1.726,19.14713,4.35718,33.0066.86666,4.56339,2.882,8.12061,5.53552,11.991a39.22622,39.22622,0,0,1,10.878,12.0415,54.31146,54.31146,0,0,1-2.30913,21.89862c-2.98887,11.89318,15.3805,16.96855,18.37241,5.065C765.92046,906.72013,768.62151,895.54819,765.64145,884.98623Z" class="colorc7b757 svgShape"/><path fill="#c7b757" d="M790.60311,741.29068c-12.72869-11.18821-26.83449,3.15208-31.52994,15.23521a49.764,49.764,0,0,0-1.68591,30.79245c1.06847,4.0499,3.83927,7.9916,4.63907,11.99256,3.72651,18.65886-1.401,16.60641-6.23,28.47436-3.60023,8.85081-2.235,17.09178.236,25.96934,1.83271,6.58029,6.2107,12.27158,7.68888,19.00459,2.54057,11.5742-1.6385,24.24787-4.07087,35.40188-2.60744,11.9526,15.75615,17.05912,18.371,5.065,4.10643-18.82056,8.46953-33.376,1.68743-51.94143-4.65989-12.75543-6.02972-20.51255-1.59686-33.52161,4.17755-12.25683,8.11621-24.07281,6.97357-27.16851-6.6546-18.02212,5.6422-25.34005,10.18189-40.7207C797.27534,753.074,796.03468,746.06333,790.60311,741.29068Z" class="colorc7b757 svgShape"/><path fill="#c7b757" d="M836.61,792.318c-8.9932-13.66647-26.45609-5.32474-33.99787,4.78465a42.49227,42.49227,0,0,0-7.98278,22.60786c-.57732,9.09274,5.91392,20.189,2.26019,27.32579-3.42364,6.68712-11.43454,10.31106-14.72612,18.25524-4.8959,11.82038-5.341,26.094-7.1605,38.59545-1.74533,11.99257,16.60945,17.17188,18.37241,5.065,2.5778-17.72382,2.514-33.35977,15.00817-46.87047,5.60224-6.05935,13.04919-13.32819,12.89783-24.11429-.22856-16.18942,10.921-18.72862,16.44031-31.19015A16.17621,16.17621,0,0,0,836.61,792.318Z" class="colorc7b757 svgShape"/><path fill="#8c8226" d="M755.96546 887.15008c-4.15521-9.45929-10.37792-16.6792-11.37071-27.47715-.72123-7.82976.46608-15.627-1.99-23.249-2.03468-6.31161-6.475-10.832-9.73982-16.47146-5.439-9.39394-3.70128-18.50447-2.99935-28.64942a80.92817 80.92817 0 00-7.9337-40.75338c-1.303-2.77216-5.41075-.35773-4.1122 2.40274 7.5746 16.11373 7.31185 30.88879 6.41692 48.1482-.68552 13.23336 4.44334 19.43662 10.75647 30.38442 7.39194 12.8147 2.29879 27.74127 7.72885 41.148 2.80043 6.91719 8.04053 12.75695 10.31561 19.91 3.2115 10.10044 1.01361 20.76177-1.12941 30.83546-.63507 2.98887 3.95507 4.26812 4.5947 1.26588C759.19474 911.97953 761.363 899.4335 755.96546 887.15008zM777.13541 753.14829c-6.88452 10.1167-10.41348 21.78861-8.99335 34.08252.59813 5.17931 2.514 9.95044 3.51421 15.02748 1.778 9.02587-1.06406 15.93122-4.15384 24.14833-4.48027 11.91248-2.80028 20.93243.06383 33.00964a131.0699 131.0699 0 01.935 56.08341c-.58628 2.9948 4.00386 4.27709 4.593 1.2674a137.311 137.311 0 002.2143-40.46388c-1.5227-14.94587-9.302-30.59216-4.4166-45.34655 3.20847-9.68784 7.56123-17.74767 5.69585-28.1879-1.30159-7.28662-4.01586-13.74078-3.97589-21.32723.052-9.57646 3.3124-18.06681 8.63578-25.88911C782.97669 753.01168 778.85248 750.62535 777.13541 753.14829zM816.91073 801.61121a68.38149 68.38149 0 00-10.62426 24.22995c-2.50805 11.91688-.89629 23.19413-7.39938 34.20879-10.04253 17.01307-22.70587 30.6069-23.12591 51.4132-.0623 3.06607 4.7 3.06607 4.76232 0 .47793-23.62755 18.00449-35.7195 26.1014-55.8386 2.879-7.15472 2.46793-14.2409 3.26044-21.79772a64.7742 64.7742 0 0111.13775-29.81151C822.74015 801.46578 818.61594 799.07946 816.91073 801.61121z" class="color8c8226 svgShape"/><path fill="#ebebeb" d="M813.66367,940.14828a55.29425,55.29425,0,0,1-6.2879,22.84234v.02674a70.11274,70.11274,0,0,1-13.91585,18.28487H747.4546c-37.64734-36.2804-11.54-76.308-10.58125-77.77582l.0386-.05182h67.09062S814.7753,919.29746,813.66367,940.14828Z" class="colorebebeb svgShape"/><path fill="#b0b0b0" d="M807.37577,962.99062v.02674a70.11274,70.11274,0,0,1-13.91585,18.28487H747.4546c-37.64734-36.2804-11.54-76.308-10.58125-77.77582l.0386-.05182S740.78374,984.7081,807.37577,962.99062Z" class="colorb0b0b0 svgShape"/><path fill="#ebebeb" d="M797.85114,984.5613H743.06171a3.27605,3.27605,0,0,1-3.27517-3.27533h0a3.276,3.276,0,0,1,3.27517-3.27532h54.78943a3.27511,3.27511,0,0,1,3.27532,3.27532h0A3.27511,3.27511,0,0,1,797.85114,984.5613Z" class="colorebebeb svgShape"/><path fill="#ffffff" d="M813.66367,940.14828c-6.51646,3.45784-15.02884,5.47458-25.6487,3.22183-21.42966-4.55746-20.6639-28.18653-18.86067-39.89552h34.84827S814.7753,919.29746,813.66367,940.14828Z" class="colorfff svgShape"/><path fill="#2d6fab" d="M369.14924 975.79057a7.46253 7.46253 0 11-7.46032-7.46336A7.45985 7.45985 0 01369.14924 975.79057zM413.997 976.12885a7.46245 7.46245 0 11-7.46321-7.46321A7.4619 7.4619 0 01413.997 976.12885z" class="color2d6fab svgShape"/><path fill="#381907" d="M392.71737,957.9464a11.75637,11.75637,0,0,1-7.18721,2.06279c-5.00869,0-7.18727-2.06279-7.18727-2.06279V846.53317h14.37448Z" class="color381907 svgShape"/><path fill="#23100f" d="M392.71737,957.9464a14.30521,14.30521,0,0,1-1.947,1.08185,21.20455,21.20455,0,0,1-2.31217.69753V846.53317h4.25916Z" class="color23100f svgShape"/><path fill="#a89c2d" d="M457.04768,722.59474c-19.6784-28.75185-42.67954-50.57039-127.24187-36.73752-29.29513,4.79043-58.30364,19.48541-56.45011,38.879,1.78971,18.592,17.57109,103.2835,44.7247,117.6595,27.15651,14.37448,63.382,13.86539,91.04749,9.07193,27.69826-4.792,43.47964-4.792,52.617-13.32075C470.91174,829.6166,476.759,751.34658,457.04768,722.59474Zm-2.64892,111.81381c-4.25186,3.19372-43.12936,9.58253-53.25639,11.18076-10.096,1.59838-20.76481,4.28149-21.2783-21.81991-.54161-26.09988-10.02916-59.38838-19.16643-65.49088-12.77758-8.52728-56.99171-19.70956-71.88121-33.00067-14.91757-13.32074,31.40533-30.35022,52.17014-33.03182,41.52946-5.30392,89.99253-4.25034,109.6723,33.03182C470.37,762.52734,458.6461,831.215,454.39876,834.40855Z" class="colora89c2d svgShape"/><path fill="#8c8226" d="M457.634,825.04728c-1.18142,5.30393-2.36417,8.72317-3.22643,9.36127-4.2473,3.19372-43.12769,9.58253-53.25487,11.18076-10.096,1.59838-20.76617,4.28149-21.27526-21.81991a135.91416,135.91416,0,0,0-1.53455-17.56957c-3.09859-21.65958-10.47727-43.12784-17.63488-47.92131-12.779-8.52728-56.99175-19.70956-71.87972-33.00067-14.919-13.32074,31.40244-30.35022,52.16724-33.03182,41.531-5.30392,89.99543-4.25034,109.67383,33.03182C466.35565,754.89347,462.13813,804.41165,457.634,825.04728Z" class="color8c8226 svgShape"/><path fill="#8c8226" d="M457.66668,824.72816l-.03268.31912c-1.18142,5.30393-2.36417,8.72317-3.22643,9.36127-4.2473,3.19372-43.12769,9.58253-53.25487,11.18076-10.096,1.59838-20.76617,4.28149-21.27526-21.81991a135.91416,135.91416,0,0,0-1.53455-17.56957C410.64026,806.93292,456.67521,810.51248,457.66668,824.72816Z" class="color8c8226 svgShape"/><path fill="#ffa59c" d="M609.61947,726.5913c-.70786-4.26813-5.06352-14.06143-10.36015-15.82-5.18523-1.72451-15.18172-5.01017-20.50205-4.80091-2.10595.08312.45255,7.45743,1.37423,8.90871a2.04756,2.04756,0,0,0,1.80155,2.465c4.49076.48979,9.495.38144,13.88333,1.582,3.98911,1.09082,5.758,6.18852,8.74094,9.11508C606.05039,729.50449,609.80942,727.73986,609.61947,726.5913Z" class="colorffa59c svgShape"/><path fill="#ffa59c" d="M598.06761,736.25528c-.82655-5.344-4.05887-14.41885-9.21888-16.60793-5.05607-2.14287-11.34853-4.17451-16.67616-4.40458-2.10883-.09058-3.29614,5.61408-1.907,5.88124,4.44911.85633,10.26805,4.80532,14.56444,6.36069,3.906,1.4142,5.30833,6.63652,8.08064,9.7962C594.29672,738.86287,598.33476,737.98724,598.06761,736.25528Z" class="colorffa59c svgShape"/><path fill="#ffa59c" d="M588.60239,736.43338c.74357-4.62129-1.21238-14.95757-6.02971-17.94507-4.71779-2.92641-11.92418-3.04814-17.18813-4.14047a2.4117,2.4117,0,0,0-2.87763,3.118c-.36351,1.08777.70345,7.1649,5.773,9.0704,4.2859,1.61024,7.02387-1.628,11.07241.59814,3.68046,2.02419,2.419,5.77882,4.71778,9.33316C585.22175,738.24391,588.41988,737.58058,588.60239,736.43338Z" class="colorffa59c svgShape"/><path fill="#ffa59c" d="M604.76065 735.14532c.36958-3.52318-2.643-14.77066-7.57308-17.52064-4.829-2.698-11.99849-2.45471-17.28463-3.28125-2.09258-.32794-2.94587 1.99152-2.27645 3.59582a2.09551 2.09551 0 001.36222 2.76624c4.35125 1.349 9.30656 2.21719 13.43518 4.24442 3.7531 1.8432 4.645 7.18572 7.09955 10.63459C600.75224 737.309 604.63893 736.30436 604.76065 735.14532zM569.574 704.56213c-10.23842.49115-26.07314-.30728-26.07314-.30728l-.41851 16.33637 18.79548 1.401 4.2666-.33843S573.73965 704.3632 569.574 704.56213z" class="colorffa59c svgShape"/><path fill="#ffa59c" d="M584.30464,706.54179s-10.61681-3.25891-16.09307-1.70217c-5.479,1.55522-5.70465,12.62626-5.70465,12.62626l7.582,1.94562,14.34926-.70056L585.054,708.664Z" class="colorffa59c svgShape"/><path fill="#c48b86" d="M588.39906 730.13955s-.43037-9.15657-5.82638-11.65124c0 0 8.30921 4.37358 8.37151 13.4604.01186 1.73029 2.96517 5.951 2.96517 5.951s-1.29855-.13951-3.19221-3.40146A39.7294 39.7294 0 01588.39906 730.13955zM602.89375 725.916s-3.40587-6.86963-5.70618-8.29128a24.59331 24.59331 0 00-6.52239-2.25426s6.40522-.32795 8.14159 2.12069c1.73621 2.44863 5.75055 10.55009 5.75055 10.55009z" class="colorc48b86 svgShape"/><path fill="#3c89d9" d="M579.30191,723.1675l.13951-20.99033S482.615,692.157,478.91079,693.15281c-11.8947,3.18324-18.72573,39.88656,7.04773,39.26776C519.99058,731.60436,579.30191,723.1675,579.30191,723.1675Z" class="color3c89d9 svgShape"/><path fill="#3c89d9" d="M500.73951,710.75794c-3.81845,7.23921-9.96822,11.61721-16.93587,12.40074a19.2599,19.2599,0,0,1-5.97622-.09209c-15.0913-2.41748-35.97332-42.172-46.86169-79.26129-5.85009-19.91882.07416-54.71815,5.86042-51.70117,13.14416,6.85778,37.75269,63.93125,51.46368,84.21509C496.8513,688.938,503.38554,705.828,500.73951,710.75794Z" class="color3c89d9 svgShape"/><path fill="#2d6fab" d="M513.56758 722.1703c-2.94282 3.89413-30.96447 10.08265-32.99763 9.75318-15.08978-2.41611-38.71585-51.02887-49.60422-88.11818-5.85009-19.91882-1.68743-43.46764.63066-51.62245a17.2412 17.2412 0 012.557-.18115c.84448-.01033 1.76311.02827 2.67278.10243a47.40676 47.40676 0 016.86963 10.79644c10.22068 20.8879 8.12962 62.45459 21.56176 85.86984C483.36583 720.342 513.71013 721.95663 513.56758 722.1703zM495.164 979.459c0 .81773-10.44326 1.47817-23.32331 1.47817-12.88293 0-23.32623-.66044-23.32623-1.47817s10.4433-1.47955 23.32623-1.47955C484.72076 977.97949 495.164 978.64131 495.164 979.459z" class="color2d6fab svgShape"/><path fill="#ffa59c" d="M452.70844,975.6807a2.83866,2.83866,0,0,0,2.81821,3.18476h38.62224s-13.59383-13.8075-26.86412-13.82239c.05045.43478.45407-12.26853-1.06711-11.87387-3.09266.79994-7.4395,2.8138-9.63.58917Z" class="colorffa59c svgShape"/><path fill="#3c89d9" d="M475.9783,964.28765a22.05063,22.05063,0,0,0,0,15.85858s17.09619,1.09218,19.18572-.68719S494.85386,962.97284,475.9783,964.28765Z" class="color3c89d9 svgShape"/><path fill="#2d6fab" d="M569.46864,979.459c0,.81773-10.44175,1.47817-23.32468,1.47817-12.88,0-23.32331-.66044-23.32331-1.47817s10.44327-1.47955,23.32331-1.47955C559.02689,977.97949,569.46864,978.64131,569.46864,979.459Z" class="color2d6fab svgShape"/><path fill="#ffa59c" d="M528.32046,965.0297l-1.30585,10.651a2.83642,2.83642,0,0,0,2.81517,3.18476H568.455s-13.59686-13.8075-26.86564-13.82239c.052.43478-3.69384-11.67054-5.215-11.27574-3.09266.7998-6.30113,2.21567-8.49309-.009Z" class="colorffa59c svgShape"/><path fill="#3c89d9" d="M550.28443,964.28765a22.032,22.032,0,0,0,0,15.85858s17.09619,1.09218,19.18421-.68719C571.55817,977.67967,569.15848,962.97284,550.28443,964.28765Z" class="color3c89d9 svgShape"/><path fill="#ffce45" d="M545.85158,805.56917c9.204,13.96478-3.41924,153.96361-3.41924,153.96361l-16.68513,2.42644L508.363,839.53148s-70.44319-2.26764-79.13079-15.9683c-8.14736-12.85041-29.49982-52.39413-29.49982-52.39413,3.98622.172,10.83655-20.91921,10.83655-20.91921C471.00368,750.24984,538.86463,794.9671,545.85158,805.56917Z" class="colorffce45 svgShape"/><path fill="#d4ac3b" d="M508.363,839.53148l17.38417,122.42774s-3.265-138.86941-8.31665-151.62925c-9.19213-23.21785-80.79285-39.16092-80.79285-39.16092L469.674,835.68036S504.04158,841.21147,508.363,839.53148Z" class="colord4ac3b svgShape"/><path fill="#ffce45" d="M507.44441,814.77468c5.00865,13.52711-39.14907,146.87742-39.14907,146.87742l-13.40543-1.073,2.72176-122.3165s-92.87006-6.51935-101.55766-20.21849c-8.14888-12.85193-12.90071-50.39229-12.90071-50.39229,3.98319.1737,41.75954-17.246,41.75954-17.246C440.29736,763.42379,503.03678,802.86676,507.44441,814.77468Z" class="colorffce45 svgShape"/><path fill="#ffa59c" d="M433.08342,554.72851c-.49576,1.25554-.95131,2.43526-1.29555,3.54172a61.01329,61.01329,0,0,0-2.13118,8.87376,67.21923,67.21923,0,0,0-.99127,8.189,76.18258,76.18258,0,0,0,.30427,14.131c-23.1571,11.42725-48.25826-4.30368-48.25826-4.30368a76.30579,76.30579,0,0,0,2.66841-11.16009,171.94548,171.94548,0,0,0,2.09239-18.62619,1.403,1.403,0,0,0,.0386-.37991,1.56538,1.56538,0,0,0,.0386-.26564Z" class="colorffa59c svgShape"/><path fill="#c48b86" d="M433.08342,554.72851c-.49576,1.25554-.95131,2.43526-1.29555,3.54172a36.44947,36.44947,0,0,0-2.13118,8.87376c-.53416,2.89389-1.09522,16.64805-1.24658,19.1991-11.00858,4.838-21.51263.50757-32.67865-3.6715-5.57412-2.08665-9.765-6.57725-12.35162-8.67134a171.94548,171.94548,0,0,0,2.09239-18.62619,1.403,1.403,0,0,0,.0386-.37991,1.56538,1.56538,0,0,0,.0386-.26564Z" class="colorc48b86 svgShape"/><path fill="#3c89d9" d="M448.25629,661.608V750.4012c-12.325,14.08666-60.8933,22.415-89.50864,26.19942-12.659,1.65613-21.42666,2.4456-21.42666,2.4456.09061-1.26132.19741-2.61337.28783-4.07209,1.70236-22.522,5.4109-67.9737,8.64763-107.13614,3.10011-37.64141,5.77441-69.46374,5.77441-69.46374,11.4122-8.88941,27.27823-19.28511,27.27823-19.28511,30.48365,22.2176,51.805,8.25267,51.805,8.25267C445.08035,596.23123,448.25629,627.3235,448.25629,661.608Z" class="color3c89d9 svgShape"/><path fill="#2d6fab" d="M448.25629,733.15365V750.4012c-12.325,14.08666-60.8933,22.415-89.50864,26.19942l-21.13883-1.62649c1.70236-22.522,5.4109-67.9737,8.64763-107.13614a36.71678,36.71678,0,0,0,5.56211-5.86651c7.20213-9.771,23.82784-21.01707,23.82784-21.01707s-2.90267,23.52512-4.05734,40.6821c-1.1709,17.15714,16.3052,55.08774,75.572,51.57808C447.52609,733.19818,447.89126,733.16854,448.25629,733.15365Z" class="color2d6fab svgShape"/><path fill="#ffa59c" d="M300.14566,642.93711c4.46842,9.22633,12.74647,22.74888,12.74647,22.74888l-14.14744,8.18308-10.22061-15.83184-1.74673-3.91343S298.32769,639.18553,300.14566,642.93711Z" class="colorffa59c svgShape"/><path fill="#3c89d9" d="M374.339,646.59388s-7.97823,38.06722-14.78555,60.90667a20.64276,20.64276,0,0,1-1.06407,2.781,32.09759,32.09759,0,0,1-7.36975,9.69529,42.34945,42.34945,0,0,1-8.17563,5.97333,33.02323,33.02323,0,0,1-5.56226,2.50653c-.01626.01641-.01626.01641-.03116.01641-5.04421,1.671-9.5883,1.48836-11.95836-1.53607a16.7,16.7,0,0,1-1.1858-1.70065c-3.79915-6.06391-5.2135-15.09131-4.89285-25.63685a136.4293,136.4293,0,0,1,1.99015-18.55507c.18251-1.079.37991-2.143.57717-3.23824,1.2911-6.83848,3.02458-13.904,5.04573-20.89535.44085-1.50325.88-3.00817,1.352-4.51294,7.55226-24.54162,15.04526-44.22155,23.75216-54.02367C384.21684,605.19784,374.339,646.59388,374.339,646.59388Z" class="color3c89d9 svgShape"/><path fill="#2d6fab" d="M358.48942,710.28153a32.09759,32.09759,0,0,1-7.36975,9.69529c-9.55882-1.91432-25.4098-14.40564-31.80606-20.3773a136.4293,136.4293,0,0,1,1.99015-18.55507c.18251-1.079.37991-2.143.57717-3.23824,1.2911-6.83848,3.02458-13.904,5.04573-20.89535.44085-1.50325.88-3.00817,1.352-4.51294l.30424.30424S354.21978,683.324,358.48942,710.28153Z" class="color2d6fab svgShape"/><path fill="#3c89d9" d="M337.83008,728.68372a15.84362,15.84362,0,0,1-6.0475.80587c-.01929.009-.01929.009-.03419.00441-4.06038-.26412-8.09843-2.29879-11.6631-6.87252-.1498-.18707-.29527-.3904-.4407-.59221-20.10436-27.46971-30.04155-58.1611-30.04155-58.1611l16.54559-12.92168s6.46449,3.36438,25.32075,25.57454c.89189,1.04477,1.80612,2.12661,2.74846,3.26636,4.68816,5.63946,9.43406,10.66286,13.23625,14.70546,3.946,4.19533,10.28735,11.13183,11.03533,12.92609C361.53167,714.73824,348.8654,725.10431,337.83008,728.68372Z" class="color3c89d9 svgShape"/><path fill="#a89c2d" d="M422.92368,841.90307c-9.14909,1.6502-17.74919,3.05117-21.78131,3.68624-10.096,1.59838-20.76481,4.28149-21.2783-21.81991-.54161-26.09988-10.02916-59.38838-19.16643-65.49088-12.78062-8.52728-56.99171-19.70956-71.88121-33.00067-4.375-3.906-3.4592-8.1311.512-12.2196q-5.04635-2.27288-10.30954-4.08409c-4.02634,4.76384-6.20782,10.0515-5.66317,15.76208,1.78971,18.592,17.56957,103.2835,44.7247,117.6595,27.15651,14.37448,63.382,13.86539,91.04749,9.07193,8.22912-1.42317,15.3852-2.422,21.64788-3.348C428.1697,846.03168,425.55923,843.94944,422.92368,841.90307Z" class="colora89c2d svgShape"/><polygon fill="#ff8477" points="200.79 753.441 728.192 753.441 739.467 734.354 189.516 734.354 200.79 753.441" class="colorff8477 svgShape"/><polygon fill="#ff8477" points="729.262 985.766 739.341 985.766 721.938 753.441 700.585 753.441 729.262 985.766" class="colorff8477 svgShape"/><polygon fill="#b55e53" points="677.276 985.766 687.354 985.766 669.952 753.441 648.598 753.441 677.276 985.766" class="colorb55e53 svgShape"/><polygon fill="#ff8477" points="203.787 985.766 193.709 985.766 211.11 753.441 232.464 753.441 203.787 985.766" class="colorff8477 svgShape"/><polygon fill="#b55e53" points="252.06 985.766 241.982 985.766 259.383 753.441 280.737 753.441 252.06 985.766" class="colorb55e53 svgShape"/><path fill="#23100f" d="M358.88979,957.81283h58.26957a5.7198,5.7198,0,0,1,5.7198,5.7198v7.06375a0,0,0,0,1,0,0H353.16909a0,0,0,0,1,0,0v-7.06285A5.7207,5.7207,0,0,1,358.88979,957.81283Z" class="color23100f svgShape"/><path fill="#381907" d="M353.902,957.81283h58.26852a5.7207,5.7207,0,0,1,5.7207,5.7207v7.06285a0,0,0,0,1,0,0H348.18125a0,0,0,0,1,0,0v-7.06285A5.7207,5.7207,0,0,1,353.902,957.81283Z" class="color381907 svgShape"/><rect width="144.733" height="5.958" x="449.311" y="727.954" fill="#d5f1fd" class="colord5f1fd svgShape"/><rect width="13.604" height="3.048" x="454.568" y="724.905" fill="#c3dde8" class="colorc3dde8 svgShape"/><rect width="13.604" height="3.048" x="470.576" y="724.905" fill="#c3dde8" class="colorc3dde8 svgShape"/><rect width="13.604" height="3.048" x="486.585" y="724.905" fill="#c3dde8" class="colorc3dde8 svgShape"/><rect width="45.096" height="3.048" x="502.593" y="724.905" fill="#c3dde8" class="colorc3dde8 svgShape"/><rect width="13.604" height="3.048" x="550.617" y="724.905" fill="#a0e0ff" class="colora0e0ff svgShape"/><rect width="13.604" height="3.048" x="566.625" y="724.905" fill="#a0e0ff" class="colora0e0ff svgShape"/><rect width="13.604" height="3.048" x="582.634" y="724.905" fill="#a0e0ff" class="colora0e0ff svgShape"/><rect width="13.604" height="3.048" x="598.642" y="724.905" fill="#a0e0ff" class="colora0e0ff svgShape"/><rect width="144.733" height="5.958" x="521.678" y="727.954" fill="#c3dde8" class="colorc3dde8 svgShape"/><path fill="#c3dde8" d="M662.33121,727.95367H518.17565l18.97647-83.45237a5.35574,5.35574,0,0,1,5.21928-4.16417H672.19716a8.02863,8.02863,0,0,1,7.82975,9.80956Z" class="colorc3dde8 svgShape"/><path fill="#d5f1fd" d="M665.83509,727.95367H521.67786l18.97951-83.45237a5.35294,5.35294,0,0,1,5.21791-4.16417H678.43749a5.84515,5.84515,0,0,1,5.69873,7.14271Z" class="colord5f1fd svgShape"/><path fill="#c3dde8" d="M665.83509,727.95367H554.30318l75.891-87.61654h48.24333a5.84515,5.84515,0,0,1,5.69873,7.14271Z" class="colorc3dde8 svgShape"/><path fill="#3c1e01" d="M440.08066,532.6726s-3.0764,18.06376-8.05238,22.63247-4.24-24.62034-4.24-24.62034Z" class="color3c1e01 svgShape"/><path fill="#ffa59c" d="M431.40643,537.04831s4.5917,25.40464-2.37595,33.09352c-6.96906,7.68873-36.96307,18.33836-45.96521,12.85482-9.00236-5.48355-29.28178-69.0861-28.55463-74.8286.72427-5.74174,36.17357-38.19335,57.16846-22.86316C432.67231,500.63433,431.40643,537.04831,431.40643,537.04831Z" class="colorffa59c svgShape"/><path fill="#3c1e01" d="M335.46153,488.2114c5.79964,4.98495,29.209-21.25444,51.94006-26.03834,18.71676-3.93942,37.95446,13.63836,38.033,14.67872,4.99528-.05562,12.3398,9.91412,13.51967,18.30265,4.421,31.43283-8.82118,41.70027-11.91248,41.86941-14.32251.78278-23.74608-23.19854-22.84978-44.34767-11.91537,2.80483-22.21472,4.45367-33.77539,11.67054-5.071,3.16394-13.68136,11.66386-20.43672,10.18948C339.94621,512.34788,330.1991,493.84342,335.46153,488.2114Z" class="color3c1e01 svgShape"/><path fill="#ffa59c" d="M425.54145,524.491c1.87283-3.92452,11.7879-8.14812,14.96669-3.79763,5.08722,6.95868,1.85642,21.75456-11.44351,19.48039C424.21478,539.34421,423.918,527.894,425.54145,524.491Z" class="colorffa59c svgShape"/><path fill="#c48b86" d="M429.37328,528.72208s5.80271-6.745,7.545-4.38088c3.40131,4.61385-1.361,9.2397-3.2115,10.70511,0,0,1.32074-3.3153-.39481-4.88982A5.81825,5.81825,0,0,0,429.37328,528.72208Z" class="colorc48b86 svgShape"/><path fill="#3c1e01" d="M430.48187,541.30974c-1.9441,4.81353-7.08041-7.7682-7.75863-8.69717a9.49126,9.49126,0,0,0-3.60175-3.11576,1.88212,1.88212,0,0,0-2.66534,1.306c-.331,4.05948.71835,7.6398.90374,11.65414.524,11.31145-11.206,16.395-20.98728,15.00514-4.84833-.69008-6.99728-5.45969-10.9478-8.02412-.43477-.28205-6.9409,1.60415-6.7479,3.04221,1.061,7.90026-6.69605,7.30744-7.09089,13.34-.13054,1.99456,2.65652,8.4472,4.13758,12.886,3.01106,9.026,11.82935,9.05262,20.1147,7.92929,9.55426-1.297,26.95028-9.15505,31.58343-14.98736,7.861-9.89634,7.96485-18.78728,6.613-29.62079C433.821,540.32136,431.23577,539.44132,430.48187,541.30974Z" class="color3c1e01 svgShape"/><path fill="#3c1e01" d="M363.783,563.18527s9.65806-11.71127,12.78355-12.75011c3.12533-1.04036,6.95716-2.01826,9.69969-2.62385,4.1894-.923,16.8959.56623,18.828,1.51374s-10.53965,9.02679-20.32092,12.4942C374.9934,565.28742,367.74538,565.85593,363.783,563.18527Z" class="color3c1e01 svgShape"/><path fill="#161228" d="M371.74938 528.84229c.279 2.03908-.77776 3.92756-2.43982 4.25323-1.71995.3325-3.41923-1.15829-3.73092-3.35618-.31164-2.19925.91271-4.13971 2.66841-4.30808C369.93582 525.26576 371.46885 526.80108 371.74938 528.84229zM393.3541 524.58009c.30865 2.26612-.86529 4.36614-2.71289 4.72752-1.91144.36943-3.80068-1.28746-4.1464-3.73016-.34572-2.44423 1.01361-4.59987 2.9652-4.78754C391.33721 520.60511 393.0409 522.31185 393.3541 524.58009zM380.9371 550.04111a15.80876 15.80876 0 003.16394-1.38821.86186.86186 0 10-1.01954-1.38988c-.975.719-6.14688 2.41748-6.96765 1.8321a7.372 7.372 0 00.07279-1.40614 42.09829 42.09829 0 011.39946-11.61189.861.861 0 00-1.6651-.43933 43.65849 43.65849 0 00-1.45735 12.05411c.00152.54768.003 1.01741-.01486 1.40766a1.59173 1.59173 0 00.86374 1.52194C376.49832 551.25441 378.91869 550.72754 380.9371 550.04111zM397.69335 514.44927a1.72248 1.72248 0 00.15135-3.20178 16.99388 16.99388 0 00-15.72333 1.0893 1.7228 1.7228 0 001.91432 2.86486h0a13.50007 13.50007 0 0112.39634-.81089A1.723 1.723 0 00397.69335 514.44927zM360.1337 523.01515a1.72041 1.72041 0 00.91118-.72792 10.98462 10.98462 0 019.62113-5.01595 1.7229 1.7229 0 00.2433-3.43717c-.33979-.02523-8.38184-.52747-12.79828 6.64715a1.72254 1.72254 0 002.02267 2.53389z" class="color161228 svgShape"/><path fill="#262626" d="M346.246 648.29453A18.77971 18.77971 0 00345.32 641.462a.716.716 0 00-1.28973-.16914c-2.50942 3.6092-6.36492 7.60712-6.29976 12.276a.60431.60431 0 00-.05638.77761 2.33955 2.33955 0 002.5927 1.19613c1.32818-.181 4.4017-1.03277 5.28462-2.19333C346.41814 652.20948 346.197 649.63609 346.246 648.29453zM312.27773 706.51368c2.05245-6.84441-6.92905-10.89-12.39178-9.2976a.71154.71154 0 00-.25074 1.21543c-.5521 4.52631-3.4817 8.19933-4.48194 12.60255-.94827 4.182-.52231 8.62378-.06975 12.83993.2836 2.63859.00744 6.69 2.54969 8.30176 2.7246 1.73028 6.972.87547 9.95047.417a.678.678 0 00.49279-.49267 4.419 4.419 0 00-.49127-3.53945c-.83251-1.26147-.5655-.35332-1.50936-1.38912-1.87131-2.05686-2.47234-3.4282-1.66054-5.98655C306.07584 715.94622 310.69272 711.79678 312.27773 706.51368zM234.079 696.802c-.85481-5.08722-4.881-8.56588-6.371-13.35342.12766-.31761.24345-.63811.39025-.94675.38736-.81621-.82806-1.53152-1.21831-.7109-.12324.25667-.21819.5179-.32658.77761a.64585.64585 0 00-.36942.78506c.00592.02082.01474.0386.02081.06094-1.31645 3.62849-1.4692 7.41564-2.00941 11.27133a17.61535 17.61535 0 01-2.61051 7.77337c-2.05245 2.96805-5.05606 3.33915-7.91728 5.07248a3.87 3.87 0 00-1.864 2.54361 77.11493 77.11493 0 00-1.67558 8.73805c-.51638 2.7395-1.04765 5.47762-1.55218 8.21864-.23008 1.26436-.708 2.84936-.273 4.12861.91115 2.6743 4.777 1.9976 6.92157 1.65172 2.05686-.331 4.10476-1.49884 3.394-3.87635-.18266-.60543-.68278-.98687-.95283-1.52695-1.09674-2.19652-1.20053-3.673-.06534-5.76712a13.60259 13.60259 0 015.74918-5.29952c2.94146-1.61752 6.3265-2.89526 8.425-5.65861C234.53458 707.05088 234.80614 701.1324 234.079 696.802z" class="color262626 svgShape"/><path fill="#404040" d="M361.867,666.47105a9.35052,9.35052,0,0,0-5.32322-5.10652.91363.91363,0,0,0-.02219-.10683c-2.86137-6.66341-8.81981-12.04894-16.42253-11.85458a14.05892,14.05892,0,0,0-9.38649,3.97878c-1.64291,1.53744-2.98883,3.342-4.7535,4.75183a38.20019,38.20019,0,0,1-5.17627,3.07792c-4.25931.71531-8.6297.32947-12.929.095-3.12837-.17218-6.25234-.40073-9.37327-.65-1.74077-.27019-3.47866-.57884-5.23721-.75983a76.64379,76.64379,0,0,0-10.34373-.22567c-7.52567.236-15.063.60559-22.565,1.26147a141.89211,141.89211,0,0,0-20.55692,2.95331c-5.81149,1.389-8.66541,4.98343-11.31145,10.05287a.70142.70142,0,0,0-.21518.29983c-2.965,8.07913-.1395,16.182,1.47666,24.21961a30.92285,30.92285,0,0,1-.48523,15.2767c-.96468,3.5054.24922,5.80556,1.98273,8.87163a45.07054,45.07054,0,0,0,6.60837,9.40595c2.03012,2.05686,4.42389,2.14728,7.25107,1.66646,2.01674-.34284,3.97573-1.13823,3.65813-3.54537-.27461-2.08361-2.18452-3.02747-3.96237-3.68777a.6796.6796,0,0,0-.0682-.22111,42.03241,42.03241,0,0,1-2.41462-5.25651c-.24479-.6574-1.76008-4.04549-1.31345-4.63025a21.61371,21.61371,0,0,1,2.24546-.67975,16.18175,16.18175,0,0,0,3.72788-2.19333c2.508-1.90261,5.63338-4.562,7.257-7.6132.0193.003.03267.01186.05337.01338,8.50506.39617,16.884-1.50189,25.23623-2.88052,8.4323-1.395,17.2743-2.20822,25.51223-4.56795.99431,3.47562,3.59871,6.45567,6.67375,8.72924,3.27973,2.42492,6.99135,4.18788,10.28294,6.59806a41.459,41.459,0,0,1,9.45928,9.42358,15.223,15.223,0,0,1,2.20822,5.81012,5.245,5.245,0,0,0,1.37135,2.98142,3.85877,3.85877,0,0,0,4.40306.29087c4.41508-2.32554,3.09434-9.69377.82366-13.27622a.642.642,0,0,0-.08161-.41411c-2.8018-4.85137-5.67046-9.46369-10.08265-13.01362a16.0744,16.0744,0,0,1-3.09707-2.646c-1.76615-2.49756-.57884-4.97294-.15743-7.51366.27764-1.66813.45866-3.34356.56987-5.02355a.61219.61219,0,0,0,.07127-.07856c2.1637-3.64187,5.344-5.84872,8.937-7.85057a.73733.73733,0,0,0,.11865-.02827A82.11589,82.11589,0,0,1,353.5876,676.8c3.26484-.70938,6.02516-1.91143,6.70049-5.4331C361.63558,670.07143,362.57944,668.47457,361.867,666.47105Z" class="color404040 svgShape"/><path fill="#404040" d="M232.28031 666.01409c-2.30776-1.70369-5.47017-2.3804-8.01682-3.6864a45.73707 45.73707 0 01-9.31686-6.38729c-5.15549-4.519-10.63611-10.03964-14.36251-15.81846-3.814-5.917-5.28477-14.02572-6.67967-20.84337-.69464-3.39554-1.02547-6.88012-1.80323-10.25179-.35469-1.539-.85481-3.73685-2.65044-4.22664-4.01738-1.09218-5.5726 6.04309-5.79964 8.56451-.56243 6.25219 1.66665 12.71076 3.74126 18.5075a90.69809 90.69809 0 008.70842 18.39612c7.90695 12.31761 21.81246 17.21047 35.11542 21.44455a.6655.6655 0 00.65148.19588C234.99762 671.20966 234.38018 667.56338 232.28031 666.01409zM340.60072 648.06005a18.77118 18.77118 0 00-.92608-6.83255.71439.71439 0 00-1.28806-.16914c-2.51261 3.60767-6.36662 7.60727-6.30128 12.276a.60369.60369 0 00-.05634.77761 2.34146 2.34146 0 002.59254 1.19612c1.32818-.18251 4.40166-1.03276 5.28474-2.19333C340.7729 651.975 340.55179 649.4016 340.60072 648.06005z" class="color404040 svgShape"/><path fill="#544f5b" d="M362.49039,664.84167c-.24193-.62033-.50605-1.31633-1.18428-1.533a.74423.74423,0,0,0-1.37423.02812c-.62336,1.631.31169,4.07376,2.281,4.17314a.70688.70688,0,0,0,.60984-.35013C363.22788,666.51558,362.73524,665.47385,362.49039,664.84167Z" class="color544f5b svgShape"/><path fill="#ffffff" d="M354.56554,659.36557a4.8539,4.8539,0,0,0-3.443,2.20822c-.374.55209.73916,1.08337.76879,1.11011a4.13092,4.13092,0,0,0,2.18452.58765,1.79675,1.79675,0,0,0,1.81645-.81621C356.50368,661.42091,355.99626,659.229,354.56554,659.36557Z" class="colorfff svgShape"/><path fill="#ffce45" d="M356.18622,660.78721a1.92587,1.92587,0,0,0-2.69071-1.33852c-.19877.06824-1.0121.5638-1.04477.93931-.10087,1.168.38448,2.91623,1.8239,2.94738A2.04587,2.04587,0,0,0,356.18622,660.78721Z" class="colorffce45 svgShape"/><path fill="#544f5b" d="M355.17853,659.91614c-.20044-.88459-1.56418-.5106-1.36085.37536a5.469,5.469,0,0,1,.07568,1.98863c-.11732.89645,1.294.88748,1.41283,0A6.60481,6.60481,0,0,0,355.17853,659.91614Z" class="color544f5b svgShape"/><path fill="#262626" d="M199.46808 638.17039c-.22412-.42444-.43037-.85921-.63522-1.297a17.58976 17.58976 0 01-8.03749 3.47258c.19589.43493.39177.8697.59358 1.30159A19.35616 19.35616 0 00199.46808 638.17039zM203.83407 644.58443c-.30408-.37551-.589-.75543-.88-1.13382a22.95139 22.95139 0 01-2.8448 2.05093 17.22482 17.22482 0 01-5.42121 2.45471c.2612.44815.53717.88733.80873 1.32971C198.42335 648.68037 201.46571 646.622 203.83407 644.58443zM195.91831 628.43514a19.09528 19.09528 0 01-8.67287 3.02139c.04909.13661.09805.279.147.41562.11427.319.236.63659.3518.95572a20.44342 20.44342 0 008.54657-2.96516C196.15872 629.38781 196.04292 628.9114 195.91831 628.43514zM194.32737 621.3561a16.63075 16.63075 0 01-9.42661 2.82566c.12613.46608.25074.932.38873 1.39352a17.88293 17.88293 0 009.34652-2.72764C194.53222 622.346 194.42828 621.84892 194.32737 621.3561zM214.9007 660.7784c.31457-.85344-1.04932-1.22287-1.36086-.374a7.32265 7.32265 0 01-2.45759 3.30344q.67.36951 1.35189.72123A9.09757 9.09757 0 00214.9007 660.7784zM218.179 667.09442a14.48709 14.48709 0 001.82675-2.13255c.51353-.75238-.70786-1.45887-1.21831-.71241a12.26422 12.26422 0 01-2.01826 2.24545C217.23657 666.69961 217.70706 666.897 218.179 667.09442zM200.79931 656.10058a13.80444 13.80444 0 003.434-2.01523 9.1057 9.1057 0 002.99194-5.586c-.40366-.43629-.79406-.88-1.18735-1.32226-.38432 2.35517-.97045 4.46994-2.95027 6.01482a13.45877 13.45877 0 01-3.32274 1.81645C200.10467 655.37934 200.44754 655.74589 200.79931 656.10058zM207.68231 661.66877a26.34872 26.34872 0 004.50109-3.79627c.62321-.66181-.37111-1.66053-.99736-.9972a25.215 25.215 0 01-4.76961 3.93121C206.835 661.09889 207.25635 661.38976 207.68231 661.66877zM326.67151 717.68258a22.23379 22.23379 0 001.72588-4.09594c.26715-.87122-1.0937-1.24369-1.36238-.377a20.256 20.256 0 01-1.46024 3.45632C325.94727 716.99843 326.31089 717.33823 326.67151 717.68258zM230.32436 702.46211c.04148.463.06671.92015.08753 1.37727a19.3242 19.3242 0 003.99063.25226c.90374-.04012.91119-1.45143 0-1.41131a17.68479 17.68479 0 01-3.80812-.22415A.74567.74567 0 00230.32436 702.46211zM322.11541 708.27816c.30287-.85922-1.061-1.22728-1.36234-.37551a18.58978 18.58978 0 01-1.86983 3.79915c.39922.24634.78947.50468 1.18275.75983A20.40212 20.40212 0 00322.11541 708.27816zM329.93042 716.5249a15.36955 15.36955 0 01-1.34308 3.11653q.50087.54776.981 1.11315a16.83208 16.83208 0 001.72147-3.85569A.70533.70533 0 00329.93042 716.5249zM314.55874 709.06914c.408.2553.82366.50453 1.23625.75391a12.77 12.77 0 002.96212-4.51006c.32946-.84736-1.03443-1.2139-1.36086-.3755A11.174 11.174 0 01314.55874 709.06914zM323.09194 714.59569a15.22425 15.22425 0 001.19324-4.07512c.129-.88748-1.23032-1.27044-1.36085-.374a14.51973 14.51973 0 01-.98991 3.57349.33089.33089 0 00.0386.02385C322.34853 714.01989 322.71951 714.30635 323.09194 714.59569zM235.70259 722.801a7.41144 7.41144 0 01-3.28277 1.85368c.24345.40955.50012.81028.75542 1.21983a8.7787 8.7787 0 003.52455-2.07464C237.35431 723.1675 236.35544 722.1703 235.70259 722.801zM240.58055 726.97714a18.61317 18.61317 0 01-5.95692 1.08473c.32794.4676.66333.92912 1.01057 1.38016a19.53355 19.53355 0 005.32186-1.104C241.80494 728.03376 241.43977 726.66986 240.58055 726.97714zM232.15266 712.92467q-1.18191-.74357-2.3611-1.487c-.09938.47778-.21819.96468-.34128 1.45431q.99723.62344 1.98859 1.25251C232.21056 714.62837 232.91994 713.40853 232.15266 712.92467zM233.63087 708.88952l-3.29907-.966c-.04452.47185-.10987.94675-.17658 1.42027q1.5537.4518 3.10011.90663A.70629.70629 0 00233.63087 708.88952zM235.6877 721.15516c.72415-.53127.02218-1.757-.71242-1.21831a5.76218 5.76218 0 01-4.6257 1.06407c.25667.49267.53128.99431.82807 1.521A7.08119 7.08119 0 00235.6877 721.15516z" class="color262626 svgShape"/><path fill="#ffa59c" d="M257.09654,667.93737c-.34877-4.31417,1.50477-14.87156,6.21359-17.86195,4.614-2.92808,13.51526-8.54217,18.72876-9.62994,2.06279-.429,1.36831,7.346.825,8.97694a2.04877,2.04877,0,0,1-1.15008,2.83007c-4.237,1.56115-9.118,2.67278-13.08338,4.9003-3.60615,2.02571-4.08561,7.39954-6.27149,10.96269C261.26664,669.89637,257.19,669.09642,257.09654,667.93737Z" class="colorffa59c svgShape"/><path fill="#ffa59c" d="M270.64736,674.51021c-.49571-5.38568.4407-14.97262,4.91656-18.34733,4.38544-3.305,9.998-6.80276,15.1106-8.3165,2.02419-.5995,4.559,4.648,3.2767,5.24162-4.10932,1.90991-8.79732,7.15305-12.58766,9.7041-3.446,2.31809-3.54233,7.726-5.46425,11.46281C274.93767,676.12637,270.80753,676.25539,270.64736,674.51021Z" class="colorffa59c svgShape"/><path fill="#ffa59c" d="M297.63913,657.50459c-.15136.12157-.30423.2433-.45559.34861-3.75463,2.59862-7.20362.12173-10.59311,3.26788a5.2853,5.2853,0,0,0-1.12348,1.42924c-1.35341,2.52127-.046,5.42413-1.18576,8.76769-.684,2.00641-3.95055,2.143-4.40751,1.06407-1.83879-4.3008-2.44574-14.80181,1.50477-18.85931,2.90274-2.99327,7.56867-4.80228,11.76248-6.50445,1.1858-.48538,2.32554-.95724,3.38961-1.444.16628-.07568.34876-.16626.51638-.24193a2.407,2.407,0,0,1,3.541,2.324C301.19484,648.59877,301.6208,654.35828,297.63913,657.50459Z" class="colorffa59c svgShape"/><path fill="#ffa59c" d="M263.88456,675.05638c-1.21406-3.32882-1.01665-14.96958,3.09859-18.83408,4.02923-3.78882,11.04581-5.29055,15.97289-7.37568,1.95-.82365,3.34049,1.22135,3.0823,2.93538a2.09749,2.09749,0,0,1-.653,3.01562c-3.89261,2.3655-8.48868,4.40762-12.00289,7.37568-3.19524,2.69952-2.76488,8.0969-4.31113,12.04012C268.29948,676.18275,264.28514,676.153,263.88456,675.05638Z" class="colorffa59c svgShape"/><path fill="#ffa59c" d="M276.79424,642.34794s9.51126-5.73733,15.201-5.55467c5.69281.181,8.59566,10.86467,8.59566,10.86467l-6.88452,3.72789-14.09106,2.79891-3.03188-9.59727Z" class="colorffa59c svgShape"/><path fill="#c48b86" d="M278.544 666.23368s-1.80171-8.9888 2.82858-12.7182c0 0-7.00036 6.25812-4.85885 15.08963.4097 1.68151-1.4335 6.49124-1.4335 6.49124s1.22579-.44967 2.272-4.07361A39.7926 39.7926 0 00278.544 666.23368zM263.4586 665.65043s1.63838-7.49147 3.52455-9.42813a24.58308 24.58308 0 015.78186-3.76648s-6.29383 1.23168-7.38465 4.02923c-1.09066 2.79739-3.02139 11.63043-3.02139 11.63043zM298.06509 654.79914a19.45139 19.45139 0 01-.426 2.70545c-.15136.12157-.30423.2433-.45559.34861-3.75463 2.59862-7.20362.12173-10.59311 3.26788a5.2853 5.2853 0 00-1.12348 1.42924c-.75983-5.24313 1.27636-7.56867 4.24-9.78738 1.82238-1.35189 2.87159-3.95051 3.434-5.74462.334-1.13975.48675-1.96052.48675-1.96052s1.83879-.07568 2.41611 0c.19741.03116.34876.24345.48675.51654a6.59561 6.59561 0 01.39481 1.3683s.57716 1.58045 1.337 3.41924C299.02218 652.20052 298.26235 652.444 298.06509 654.79914z" class="colorc48b86 svgShape"/><path fill="#ffa59c" d="M287.55207,661.90173c-.04008.96757,3.897,3.96541,5.24162,2.97854,3.79764-2.7901,5.98811-6.3265,8.18-10.69553a13.15289,13.15289,0,0,0,1.10118-8.69794c-.29379-1.1206-5.25651-6.82221-6.09494-6.4616-.46745-.32505.48234,1.49884-.03116,1.85217-4.88841,3.35982-.74357,4.02619-2.20229,8.92193C292.27731,654.73227,287.74948,657.32785,287.55207,661.90173Z" class="colorffa59c svgShape"/><path fill="#2d6fab" d="M412.82025,234.23431l.23444-109.18784a3.301,3.301,0,0,0-.41258-1.58653h.00152l-.00152-.00076a3.32765,3.32765,0,0,0-.58766-.80724l-6.36358-8.72621-18.40948,7.70879-239.75929-.51486a3.35787,3.35787,0,0,0-3.36435,3.34949l-.21217,99.07114-6.15433,2.57629,6.5312,8.92208a2.6146,2.6146,0,0,0,2.22311,1.251l263.642.56683A2.627,2.627,0,0,0,412.82025,234.23431Z" class="color2d6fab svgShape"/><path fill="#3789db" d="M403.33418,227.51071l-263.64047-.56607a2.628,2.628,0,0,1-2.62232-2.63418l.23448-109.18708a3.35461,3.35461,0,0,1,3.36286-3.34873l262.18463.56319a3.355,3.355,0,0,1,3.34812,3.36347L405.967,224.88854A2.6272,2.6272,0,0,1,403.33418,227.51071Z" class="color3789db svgShape"/><path fill="#f7f7f7" d="M171.15405 197.04925l.03116-57.287 11.5666.00289-.01034 22.55375 22.66423.00973.009-22.55087 11.571.00593-.0266 57.28927L205.388 197.067l.01486-25.04691L182.74 172.00751l-.01489 25.04691zM241.80935 197.08344l.02234-47.59626-16.99529-.00972.00289-9.6886 45.52754.0193-.00593 9.69376-16.9582-.00881-.02371 47.59778zM277.64753 197.1035l.02674-57.29018 17.31294.00745 10.37484 39.08463 10.29936-39.0705 17.35134.00593-.02811 57.28927-10.746-.00365.02219-45.0993-11.39442 45.09337-11.14216-.0082-11.30841-45.10159-.02234 45.0987zM344.78572 197.13617l.02675-56.82121 11.571.00517-.02522 47.16665 28.76385.01793-.00745 9.65213z" class="colorf7f7f7 svgShape"/><path fill="#b83f33" d="M559.97516,399.827l.21078-98.02942a2.98149,2.98149,0,0,0-.3711-1.42392h0v-.00076a2.98459,2.98459,0,0,0-.52824-.72488l-5.71362-7.83431-16.52632,6.92084-165.10884-.46228a3.0129,3.0129,0,0,0-3.02,3.00741l-.19147,88.94625-5.525,2.31353,5.86347,8.01014a2.35059,2.35059,0,0,0,1.99592,1.12272l186.5505.50833A2.35952,2.35952,0,0,0,559.97516,399.827Z" class="colorb83f33 svgShape"/><path fill="#ff5847" d="M551.45822,393.79057l-186.54884-.50833a2.3604,2.3604,0,0,1-2.35517-2.36474l.21078-98.02866a3.01407,3.01407,0,0,1,3.02-3.00665l185.24132.50528a3.01431,3.01431,0,0,1,3.0068,3.02l-.21078,98.02866A2.35942,2.35942,0,0,1,551.45822,393.79057Z" class="colorff5847 svgShape"/><path fill="#ffffff" d="M426.57284 348.32093l9.05871 2.87155q-2.0837 7.57544-6.92753 11.25127-4.8462 3.6775-12.29239 3.67682a19.89979 19.89979 0 01-15.149-6.29611q-5.93484-6.29641-5.93322-17.21564 0-11.55109 5.96437-17.942 5.96589-6.39123 15.68625-6.39108 8.4882 0 13.79123 5.01822a18.26012 18.26012 0 014.7342 8.52074l-9.24714 2.20974a9.55929 9.55929 0 00-9.75167-7.76379 10.52217 10.52217 0 00-8.3478 3.69232q-3.20543 3.693-3.2039 11.96141 0 8.774 3.15649 12.49784a10.24481 10.24481 0 008.20526 3.72424 9.35958 9.35958 0 006.40659-2.367Q425.40574 353.40191 426.57284 348.32093zM441.28119 350.27764l9.08838-.88383q.82146 4.577 3.33014 6.72207a10.06569 10.06569 0 006.77029 2.14667q4.51225 0 6.79987-1.91006a5.67912 5.67912 0 002.28846-4.46537 4.21527 4.21527 0 00-.96164-2.793 7.708 7.708 0 00-3.36149-2.00428q-1.64283-.5676-7.47947-2.01978-7.513-1.86213-10.54132-4.576a12.03861 12.03861 0 01-4.26068-9.31021 11.8975 11.8975 0 012.00352-6.612 12.54988 12.54988 0 015.77593-4.68664 23.14415 23.14415 0 019.10464-1.60947q8.71062 0 13.113 3.81845a13.47925 13.47925 0 014.62433 10.19389l-9.34212.41031a7.92884 7.92884 0 00-2.57188-5.1281q-1.97222-1.56259-5.91832-1.56267a10.66924 10.66924 0 00-6.37411 1.6733 3.36839 3.36839 0 00-1.484 2.87155 3.55165 3.55165 0 001.389 2.80864q1.76752 1.48464 8.58385 3.09343a45.29388 45.29388 0 0110.084 3.32942 13.00072 13.00072 0 015.1126 4.70229 13.76075 13.76075 0 011.84608 7.36975 13.617 13.617 0 01-2.20974 7.44756 13.22928 13.22928 0 01-6.24778 5.16 26.20384 26.20384 0 01-10.06776 1.689q-8.77519 0-13.4767-4.056Q442.19482 358.04174 441.28119 350.27764zM484.39281 350.27764l9.08834-.88383q.8213 4.577 3.33019 6.72207a10.06478 10.06478 0 006.77009 2.14667q4.51226 0 6.8-1.91006a5.67894 5.67894 0 002.28831-4.46537 4.21444 4.21444 0 00-.96165-2.793 7.70829 7.70829 0 00-3.36134-2.00428q-1.64283-.5676-7.47962-2.01978-7.513-1.86213-10.54113-4.576a12.03812 12.03812 0 01-4.26068-9.31021 11.89734 11.89734 0 012.00337-6.612 12.54973 12.54973 0 015.77593-4.68664 23.14463 23.14463 0 019.1046-1.60947q8.71062 0 13.113 3.81845a13.47867 13.47867 0 014.62433 10.19389l-9.34212.41031a7.92943 7.92943 0 00-2.57172-5.1281q-1.97245-1.56259-5.91848-1.56267a10.669 10.669 0 00-6.37392 1.6733 3.36817 3.36817 0 00-1.4841 2.87155 3.55134 3.55134 0 001.38913 2.80864q1.76751 1.48464 8.58365 3.09343a45.29548 45.29548 0 0110.08417 3.32942 12.99928 12.99928 0 015.11245 4.70229 13.76069 13.76069 0 011.84624 7.36975 13.61833 13.61833 0 01-2.20974 7.44756 13.23041 13.23041 0 01-6.24794 5.16 26.20276 26.20276 0 01-10.06776 1.689q-8.77513 0-13.47651-4.056Q485.30621 358.04174 484.39281 350.27764z" class="colorfff svgShape"/><path fill="#d4ac3b" d="M274.30549,499.4923l.18692-86.55156a2.65,2.65,0,0,0-.32643-1.25783h0l-.00152-.00076a2.63672,2.63672,0,0,0-.46592-.63962l-5.04437-6.91781L254.06162,410.236l-145.77627-.40818a2.66138,2.66138,0,0,0-2.6667,2.655l-.16929,78.53186-4.878,2.04288,5.17628,7.0722a2.07656,2.07656,0,0,0,1.76311.99128l164.70806.44891A2.08085,2.08085,0,0,0,274.30549,499.4923Z" class="colord4ac3b svgShape"/><path fill="#ffce45" d="M266.7859,494.16239l-164.7067-.4489a2.08437,2.08437,0,0,1-2.0792-2.088l.18692-86.551a2.66035,2.66035,0,0,1,2.66549-2.655l163.552.44678a2.66068,2.66068,0,0,1,2.65485,2.6667l-.1854,86.551A2.08322,2.08322,0,0,1,266.7859,494.16239Z" class="colorffce45 svgShape"/><path fill="#ffffff" d="M130.38579 469.036V428.18629h13.23473q7.52415 0 9.80957.61288a10.71885 10.71885 0 015.87972 3.99868 12.68841 12.68841 0 012.36854 7.95528 13.31391 13.31391 0 01-1.36678 6.325 11.1957 11.1957 0 01-3.46817 4.02695 11.96757 11.96757 0 01-4.27709 1.93666 47.14589 47.14589 0 01-8.55554.58476h-5.37808V469.036zm8.2469-33.93937v11.592h4.51449q4.87714 0 6.52086-.64114a5.42573 5.42573 0 002.57777-2.00641 5.492 5.492 0 00.93338-3.17655 5.28069 5.28069 0 00-1.3104-3.67834 5.70763 5.70763 0 00-3.3153-1.81129 39.73571 39.73571 0 00-5.93625-.27825zM168.47538 469.036V428.18629h8.24823v16.07817h16.16267V428.18629h8.2469V469.036h-8.2469v-17.8612H176.72361V469.036zM209.66045 469.036V428.18629h13.23474q7.52414 0 9.80956.61288a10.71887 10.71887 0 015.87973 3.99868 12.68841 12.68841 0 012.36854 7.95528 13.31391 13.31391 0 01-1.36678 6.325 11.19563 11.19563 0 01-3.46818 4.02695 11.9663 11.9663 0 01-4.27708 1.93666 47.14516 47.14516 0 01-8.55539.58476h-5.37824V469.036zm8.2469-33.93937v11.592h4.51449q4.87716 0 6.52087-.64114a5.42573 5.42573 0 002.57777-2.00641 5.49215 5.49215 0 00.93353-3.17655 5.28139 5.28139 0 00-1.31041-3.67834 5.70842 5.70842 0 00-3.31544-1.81129 39.73473 39.73473 0 00-5.9361-.27825z" class="colorfff svgShape"/><path fill="#2d6fab" d="M992.55049,318.60364l.00288-.02006-.24193-.24254c-.13494-.14026-.27156-.27688-.41258-.41183l-8.726-8.718-.13951,4.6108c-.49131-.04893-.98839-.07568-1.49155-.07568H659.47592a14.95682,14.95682,0,0,0-14.95621,14.957V541.87a14.95617,14.95617,0,0,0,14.95621,14.95621h25.76449l-13.0507,32.50723L645.7634,627.40222l7.9337,7.996,74.90412-78.572H981.54175A14.95606,14.95606,0,0,0,996.498,541.87V328.70331A14.88832,14.88832,0,0,0,992.55049,318.60364Z" class="color2d6fab svgShape"/><path fill="#3789db" d="M646.42619,305.75034H978.721a9.8417,9.8417,0,0,1,9.8417,9.8417V538.98829a9.8418,9.8418,0,0,1-9.8418,9.8418H646.42629a9.8418,9.8418,0,0,1-9.8418-9.8418V315.592A9.8417,9.8417,0,0,1,646.42619,305.75034Z" class="color3789db svgShape"/><polygon fill="#3789db" points="678.706 545.34 645.763 627.402 730.864 538.134 678.706 545.34" class="color3789db svgShape"/><path fill="#ffffff" d="M888.65836,347.42235H759.29717a1.36054,1.36054,0,0,1-1.36375-1.39064,1.42055,1.42055,0,0,1,1.41283-1.39125h129.3612a1.35981,1.35981,0,0,1,1.36374,1.39125A1.4195,1.4195,0,0,1,888.65836,347.42235Z" class="colorfff svgShape"/><path fill="#ffd042" d="M735.75138 347.42235H705.45753a1.36054 1.36054 0 01-1.36374-1.39064 1.42141 1.42141 0 011.41268-1.39125h30.29384a1.361 1.361 0 011.36527 1.39125A1.4206 1.4206 0 01735.75138 347.42235zM888.25915 369.99981H819.349a1.35957 1.35957 0 01-1.36375-1.39049 1.41723 1.41723 0 011.41283-1.38988h68.91012a1.35765 1.35765 0 011.36375 1.38988A1.41746 1.41746 0 01888.25915 369.99981z" class="colorffd042 svgShape"/><path fill="#ffffff" d="M798.90335 369.99981h-93.845a1.36051 1.36051 0 01-1.36375-1.39049 1.41842 1.41842 0 011.4142-1.38988h93.84215a1.35984 1.35984 0 011.36526 1.38988A1.42048 1.42048 0 01798.90335 369.99981zM925.8381 391.63128H796.47843a1.36036 1.36036 0 01-1.36375-1.38988 1.41916 1.41916 0 011.4142-1.39049H925.88719a1.35908 1.35908 0 011.36374 1.39049A1.41834 1.41834 0 01925.8381 391.63128zM772.93264 391.63128H720.55476a1.35953 1.35953 0 01-1.36389-1.38988 1.42 1.42 0 011.41283-1.39049h52.37787a1.36127 1.36127 0 011.36526 1.39049A1.41954 1.41954 0 01772.93264 391.63128zM925.439 414.20585h-85.8966a1.36086 1.36086 0 01-1.36526-1.39064 1.41952 1.41952 0 011.4142-1.38973H925.488a1.36063 1.36063 0 011.36526 1.38973A1.42079 1.42079 0 01925.439 414.20585z" class="colorfff svgShape"/><path fill="#ffd042" d="M819.09525,414.20585h-98.9397a1.35888,1.35888,0,0,1-1.3639-1.39064,1.41933,1.41933,0,0,1,1.41283-1.38973h98.93985a1.35937,1.35937,0,0,1,1.36374,1.38973A1.41748,1.41748,0,0,1,819.09525,414.20585Z" class="colorffd042 svgShape"/><path fill="#ffffff" d="M955.92269 403.44346a7.67274 7.67274 0 00-2.79435.55589 4.06043 4.06043 0 00-1.63258 1.53152 7.546 7.546 0 00-.99568 2.6942 29.26111 29.26111 0 00-.27764 4.19913 35.88493 35.88493 0 01-.56531 6.85778 6.34713 6.34713 0 01-1.6844 3.124 8.39462 8.39462 0 01-3.52607 1.86022 18.74 18.74 0 01-4.86474.45635h-1.3446l.10988-6.072a11.51962 11.51962 0 003.54689-.34207 2.5152 2.5152 0 001.245-.98687 4.57064 4.57064 0 00.44375-2.18832q.04011-1.54366.31912-5.89613a15.39327 15.39327 0 01.75832-4.21387 8.70869 8.70869 0 011.52847-2.681 9.00876 9.00876 0 012.39833-1.93589 10.17672 10.17672 0 01-2.68919-2.37736 9.92474 9.92474 0 01-1.54489-4.25034 75.63888 75.63888 0 01-.267-7.7942 6.76182 6.76182 0 00-.297-2.53039 2.043 2.043 0 00-1.12181-.972 11.95642 11.95642 0 00-3.67606-.3436l.10835-6.04673h1.34a19.62165 19.62165 0 015.22839.532 6.6467 6.6467 0 013.02884 1.809 6.46011 6.46011 0 011.62953 3.13658 27.8 27.8 0 01.33843 5.8583 29.47983 29.47983 0 00.27157 6.04673 5.1551 5.1551 0 001.64579 2.89678 6.143 6.143 0 003.44887.99887zM674.26891 354.28377a6.35 6.35 0 003.486-1.00024 5.38675 5.38675 0 001.74381-2.89678 29.38587 29.38587 0 00.48827-6.04673 27.93794 27.93794 0 01.54465-5.85754 6.76524 6.76524 0 011.73773-3.13734 7.01692 7.01692 0 013.0957-1.809 19.84031 19.84031 0 015.24618-.532h1.34156l-.10836 6.049a12.106 12.106 0 00-3.68639.34131 2.14837 2.14837 0 00-1.15753.972 6.90832 6.90832 0 00-.38584 2.53039 75.9987 75.9987 0 01-.54161 7.79419 10.30923 10.30923 0 01-1.69336 4.25171 10.78076 10.78076 0 01-2.7752 2.37751 8.6068 8.6068 0 012.333 1.9359 8.37586 8.37586 0 011.43061 2.68235 15.14944 15.14944 0 01.60848 4.2125q.12673 4.352.10971 5.89462a4.50606 4.50606 0 00.3667 2.18968 2.41214 2.41214 0 001.21087.9855 11.3837 11.3837 0 003.53655.34344l-.10683 6.072H689.752a18.61356 18.61356 0 01-4.85137-.45772 8.03737 8.03737 0 01-3.45935-1.85809 6.10012 6.10012 0 01-1.57756-3.1261 35.6826 35.6826 0 01-.319-6.85625 29.4378 29.4378 0 00-.12765-4.20065 7.397 7.397 0 00-.90238-2.69421 3.85815 3.85815 0 00-1.57893-1.53167 7.53125 7.53125 0 00-2.7752-.55574zM888.65836 451.99558H759.29717a1.361 1.361 0 01-1.36375-1.39064 1.4211 1.4211 0 011.41283-1.392h129.3612a1.36036 1.36036 0 011.36374 1.392A1.42 1.42 0 01888.65836 451.99558zM735.75138 451.99558H705.45753a1.361 1.361 0 01-1.36374-1.39064 1.422 1.422 0 011.41268-1.392h30.29384a1.36154 1.36154 0 011.36527 1.392A1.42111 1.42111 0 01735.75138 451.99558zM888.25915 474.57228H819.349a1.35956 1.35956 0 01-1.36375-1.39049 1.41724 1.41724 0 011.41283-1.38988h68.91012a1.35766 1.35766 0 011.36375 1.38988A1.41746 1.41746 0 01888.25915 474.57228z" class="colorfff svgShape"/><path fill="#ffd042" d="M798.90335 474.57228h-93.845a1.3605 1.3605 0 01-1.36375-1.39049 1.41843 1.41843 0 011.4142-1.38988h93.84215a1.35985 1.35985 0 011.36526 1.38988A1.42047 1.42047 0 01798.90335 474.57228zM925.8381 496.20452H796.47843a1.361 1.361 0 01-1.36375-1.39065 1.41852 1.41852 0 011.4142-1.38973H925.88719a1.35844 1.35844 0 011.36374 1.38973A1.419 1.419 0 01925.8381 496.20452z" class="colorffd042 svgShape"/><path fill="#ffffff" d="M772.93264,496.20452H720.55476a1.36018,1.36018,0,0,1-1.36389-1.39065,1.41933,1.41933,0,0,1,1.41283-1.38973h52.37787a1.36063,1.36063,0,0,1,1.36526,1.38973A1.4202,1.4202,0,0,1,772.93264,496.20452Z" class="colorfff svgShape"/><path fill="#ffd042" d="M925.439,518.77833h-85.8966a1.36068,1.36068,0,0,1-1.36526-1.38988,1.41956,1.41956,0,0,1,1.4142-1.39049H925.488a1.36072,1.36072,0,0,1,1.36526,1.39049A1.42065,1.42065,0,0,1,925.439,518.77833Z" class="colorffd042 svgShape"/><path fill="#ffffff" d="M819.09525 518.77833h-98.9397a1.3587 1.3587 0 01-1.3639-1.38988 1.41937 1.41937 0 011.41283-1.39049h98.93985a1.35946 1.35946 0 011.36374 1.39049A1.41734 1.41734 0 01819.09525 518.77833zM955.92269 508.01669a7.66882 7.66882 0 00-2.79435.55514 4.06462 4.06462 0 00-1.63258 1.53151 7.54935 7.54935 0 00-.99568 2.69421 29.261 29.261 0 00-.27764 4.19913 35.90115 35.90115 0 01-.56531 6.85853 6.34788 6.34788 0 01-1.6844 3.12321 8.39451 8.39451 0 01-3.52607 1.86022 18.73949 18.73949 0 01-4.86474.45636h-1.3446l.10988-6.072a11.51919 11.51919 0 003.54689-.34208 2.516 2.516 0 001.245-.98687 4.56876 4.56876 0 00.44375-2.18831q.04011-1.54254.31912-5.89614a15.39342 15.39342 0 01.75832-4.21387 8.70852 8.70852 0 011.52847-2.681 9.02339 9.02339 0 012.39833-1.9359 10.1741 10.1741 0 01-2.68919-2.37751 9.9203 9.9203 0 01-1.54489-4.25019 75.62984 75.62984 0 01-.267-7.79419 6.76126 6.76126 0 00-.297-2.53039 2.04593 2.04593 0 00-1.12181-.972 11.9654 11.9654 0 00-3.67606-.34283l.10835-6.0475h1.34a19.58424 19.58424 0 015.22839.5328 6.652 6.652 0 013.02884 1.80824 6.45931 6.45931 0 011.62953 3.13734 27.788 27.788 0 01.33843 5.85754 29.49274 29.49274 0 00.27157 6.04749 5.15268 5.15268 0 001.64579 2.896 6.14174 6.14174 0 003.44887.99872zM674.26891 458.857a6.35775 6.35775 0 003.486-1.00024 5.39319 5.39319 0 001.74381-2.89693 29.39915 29.39915 0 00.48827-6.0475 27.93722 27.93722 0 01.54465-5.85738 6.76514 6.76514 0 011.73773-3.13734 7.007 7.007 0 013.0957-1.80825 19.80258 19.80258 0 015.24618-.53279h1.34156l-.10836 6.04886a12.1039 12.1039 0 00-3.68639.34147 2.15089 2.15089 0 00-1.15753.972 6.9113 6.9113 0 00-.38584 2.53024 75.99056 75.99056 0 01-.54161 7.79419 10.309 10.309 0 01-1.69336 4.25186 10.78347 10.78347 0 01-2.7752 2.37751 8.618 8.618 0 012.333 1.9359 8.39208 8.39208 0 011.43061 2.68236 15.14938 15.14938 0 01.60848 4.2125q.12673 4.35315.10971 5.89461a4.506 4.506 0 00.3667 2.18968 2.41214 2.41214 0 001.21087.9855 11.3836 11.3836 0 003.53655.34345l-.10683 6.072H689.752a18.614 18.614 0 01-4.85137-.45772 8.03916 8.03916 0 01-3.45935-1.85809 6.09761 6.09761 0 01-1.57756-3.12534 35.69606 35.69606 0 01-.319-6.857 29.44315 29.44315 0 00-.12765-4.20065 7.40389 7.40389 0 00-.90238-2.69436 3.8555 3.8555 0 00-1.57893-1.53075 7.49966 7.49966 0 00-2.7752-.55574z" class="colorfff svgShape"/><path fill="#4d4d4d" d="M943.91387,988.22536H121.26934a1.51967,1.51967,0,0,1,0-3.03933H943.91387a1.51967,1.51967,0,0,1,0,3.03933Z" class="color4d4d4d svgShape"/></svg>