<svg xmlns="http://www.w3.org/2000/svg" data-name="Layer 1" viewBox="0 0 1100 1100"><defs><clipPath id="a"><path fill="none" d="M725.09815,339.47753c-136.45137,4.91742-148.15241-34.89108-294.52506-98.32939-146.37122-63.43831-342.9185,76.126-301.73942,237.89368,41.17923,161.76849-73.50852,352.08344,82.16467,431.38133s460.17725,149.08,615.60112,0C982.02475,761.34311,1077.18223,326.78986,725.09815,339.47753Z"/></clipPath><clipPath id="c"><path fill="none" d="M830.53485,273.28171a18.03447,18.03447,0,0,1-8.74751,22.59514c-33.49876,16.72852-133.41569,55.03163-241.64637-15.25929C453.74283,198.5279,794.07019,177.55884,830.53485,273.28171Z"/></clipPath><linearGradient id="b" x1="401.88" x2="401.88" y1="604.702" y2="359.653" gradientUnits="userSpaceOnUse"><stop offset="0" stop-color="#ffffff" stop-opacity="0" class="stopColorfff svgShape"/><stop offset="1" stop-color="#ffffff" class="stopColorfff svgShape"/></linearGradient></defs><path fill="#ff8575" d="M725.09815,339.47753c-136.45137,4.91742-148.15241-34.89108-294.52506-98.32939-146.37122-63.43831-342.9185,76.126-301.73942,237.89368,41.17923,161.76849-73.50852,352.08344,82.16467,431.38133s460.17725,149.08,615.60112,0C982.02475,761.34311,1077.18223,326.78986,725.09815,339.47753Z" class="colorff8575 svgShape"/><g clip-path="url(#a)" fill="#000000" class="color000 svgShape"><polygon fill="#ff988d" points="113.12 454.291 113.12 427.207 158.045 427.207 158.045 297.754 170.43 297.754 170.43 427.207 218.823 427.207 218.823 454.291 244.74 454.291 244.74 997.065 57.814 997.065 57.814 454.291 113.12 454.291" class="colorff988d svgShape"/><rect width="25.921" height="488.248" x="57.814" y="454.291" fill="#cc6a5e" transform="rotate(180 70.774 698.415)" class="colorcc6a5e svgShape"/><rect width="186.925" height="413.481" x="151.279" y="583.584" fill="#ff988d" transform="rotate(180 244.741 790.325)" class="colorff988d svgShape"/><rect width="25.919" height="413.481" x="151.279" y="583.584" fill="#cc6a5e" transform="rotate(180 164.238 790.325)" class="colorcc6a5e svgShape"/><rect width="186.925" height="413.481" x="628.144" y="583.583" fill="#ff988d" transform="rotate(180 721.606 790.323)" class="colorff988d svgShape"/><rect width="25.919" height="413.481" x="628.144" y="583.583" fill="#cc6a5e" transform="rotate(180 641.103 790.323)" class="colorcc6a5e svgShape"/><rect width="250.801" height="610.151" x="332.999" y="386.915" fill="#ff988d" transform="rotate(180 458.4 691.99)" class="colorff988d svgShape"/><rect width="25.919" height="610.151" x="332.999" y="386.915" fill="#cc6a5e" transform="rotate(180 345.959 691.99)" class="colorcc6a5e svgShape"/><rect width="39.169" height="16.258" x="518.214" y="416.137" fill="#ffb9b3" transform="rotate(180 537.799 424.266)" class="colorffb9b3 svgShape"/><rect width="39.17" height="16.258" x="452.265" y="416.137" fill="#ffb9b3" transform="rotate(180 471.85 424.266)" class="colorffb9b3 svgShape"/><rect width="39.169" height="16.258" x="518.214" y="475.329" fill="#ffb9b3" transform="rotate(180 537.799 483.457)" class="colorffb9b3 svgShape"/><rect width="39.17" height="16.258" x="452.265" y="475.329" fill="#ffb9b3" transform="rotate(180 471.85 483.457)" class="colorffb9b3 svgShape"/><rect width="39.169" height="16.258" x="386.318" y="475.329" fill="#ffb9b3" transform="rotate(180 405.902 483.457)" class="colorffb9b3 svgShape"/><rect width="39.169" height="16.257" x="518.214" y="534.521" fill="#ffb9b3" transform="rotate(180 537.799 542.65)" class="colorffb9b3 svgShape"/><rect width="39.169" height="16.257" x="386.318" y="534.521" fill="#ffb9b3" transform="rotate(180 405.902 542.65)" class="colorffb9b3 svgShape"/><rect width="39.17" height="16.258" x="452.265" y="564.116" fill="#ffb9b3" transform="rotate(180 471.85 572.245)" class="colorffb9b3 svgShape"/><rect width="39.169" height="16.258" x="518.214" y="593.712" fill="#ffb9b3" transform="rotate(180 537.799 601.84)" class="colorffb9b3 svgShape"/><rect width="39.17" height="16.256" x="452.265" y="623.309" fill="#ffb9b3" transform="rotate(180 471.85 631.437)" class="colorffb9b3 svgShape"/><rect width="39.169" height="16.256" x="518.214" y="652.905" fill="#ffb9b3" transform="rotate(180 537.799 661.033)" class="colorffb9b3 svgShape"/><rect width="39.169" height="16.256" x="386.318" y="652.905" fill="#ffb9b3" transform="rotate(180 405.902 661.033)" class="colorffb9b3 svgShape"/><rect width="39.169" height="16.258" x="518.214" y="707.603" fill="#ffb9b3" transform="rotate(180 537.799 715.732)" class="colorffb9b3 svgShape"/><rect width="39.17" height="16.258" x="452.265" y="707.603" fill="#ffb9b3" transform="rotate(180 471.85 715.732)" class="colorffb9b3 svgShape"/><rect width="39.169" height="16.256" x="518.214" y="766.795" fill="#ffb9b3" transform="rotate(180 537.799 774.923)" class="colorffb9b3 svgShape"/><rect width="39.17" height="16.256" x="452.265" y="766.795" fill="#ffb9b3" transform="rotate(180 471.85 774.923)" class="colorffb9b3 svgShape"/><rect width="39.169" height="16.256" x="386.318" y="766.795" fill="#ffb9b3" transform="rotate(180 405.902 774.923)" class="colorffb9b3 svgShape"/><rect width="39.169" height="16.258" x="518.214" y="825.986" fill="#ffb9b3" transform="rotate(180 537.799 834.115)" class="colorffb9b3 svgShape"/><rect width="39.169" height="16.258" x="386.318" y="825.986" fill="#ffb9b3" transform="rotate(180 405.902 834.115)" class="colorffb9b3 svgShape"/><rect width="39.17" height="16.258" x="452.265" y="855.582" fill="#ffb9b3" transform="rotate(180 471.85 863.711)" class="colorffb9b3 svgShape"/><rect width="39.169" height="16.258" x="386.318" y="855.582" fill="#ffb9b3" transform="rotate(180 405.902 863.711)" class="colorffb9b3 svgShape"/><rect width="39.169" height="16.258" x="518.214" y="885.178" fill="#ffb9b3" transform="rotate(180 537.799 893.307)" class="colorffb9b3 svgShape"/><rect width="39.17" height="16.258" x="452.265" y="914.774" fill="#ffb9b3" transform="rotate(180 471.85 922.903)" class="colorffb9b3 svgShape"/><rect width="39.169" height="16.258" x="518.214" y="944.369" fill="#ffb9b3" transform="rotate(180 537.799 952.498)" class="colorffb9b3 svgShape"/><rect width="39.169" height="16.258" x="386.318" y="944.369" fill="#ffb9b3" transform="rotate(180 405.902 952.498)" class="colorffb9b3 svgShape"/><rect width="245.814" height="564.671" x="756.924" y="432.395" fill="#ff988d" transform="rotate(180 879.831 714.73)" class="colorff988d svgShape"/><rect width="25.403" height="564.671" x="756.924" y="432.395" fill="#cc6a5e" transform="rotate(180 769.626 714.73)" class="colorcc6a5e svgShape"/><rect width="38.39" height="15.046" x="938.456" y="459.439" fill="#ffb9b3" transform="rotate(180 957.65 466.962)" class="colorffb9b3 svgShape"/><rect width="38.39" height="15.046" x="873.819" y="459.439" fill="#ffb9b3" transform="rotate(180 893.014 466.962)" class="colorffb9b3 svgShape"/><rect width="38.39" height="15.046" x="938.456" y="514.218" fill="#ffb9b3" transform="rotate(180 957.65 521.74)" class="colorffb9b3 svgShape"/><rect width="38.39" height="15.046" x="873.819" y="514.218" fill="#ffb9b3" transform="rotate(180 893.014 521.74)" class="colorffb9b3 svgShape"/><rect width="38.39" height="15.046" x="809.183" y="514.218" fill="#ffb9b3" transform="rotate(180 828.378 521.74)" class="colorffb9b3 svgShape"/><rect width="38.39" height="15.045" x="938.456" y="568.998" fill="#ffb9b3" transform="rotate(180 957.65 576.52)" class="colorffb9b3 svgShape"/><rect width="38.39" height="15.045" x="809.183" y="568.998" fill="#ffb9b3" transform="rotate(180 828.378 576.52)" class="colorffb9b3 svgShape"/><rect width="38.39" height="15.045" x="873.819" y="596.388" fill="#ffb9b3" transform="rotate(180 893.014 603.91)" class="colorffb9b3 svgShape"/><rect width="38.39" height="15.045" x="938.456" y="623.778" fill="#ffb9b3" transform="rotate(180 957.65 631.3)" class="colorffb9b3 svgShape"/><rect width="38.39" height="15.046" x="873.819" y="651.167" fill="#ffb9b3" transform="rotate(180 893.014 658.69)" class="colorffb9b3 svgShape"/><rect width="38.39" height="15.045" x="938.456" y="678.557" fill="#ffb9b3" transform="rotate(180 957.65 686.08)" class="colorffb9b3 svgShape"/><rect width="38.39" height="15.045" x="809.183" y="678.557" fill="#ffb9b3" transform="rotate(180 828.378 686.08)" class="colorffb9b3 svgShape"/><rect width="38.39" height="15.045" x="938.456" y="729.18" fill="#ffb9b3" transform="rotate(180 957.65 736.702)" class="colorffb9b3 svgShape"/><rect width="38.39" height="15.045" x="873.819" y="729.18" fill="#ffb9b3" transform="rotate(180 893.014 736.702)" class="colorffb9b3 svgShape"/><rect width="38.39" height="15.045" x="938.456" y="783.959" fill="#ffb9b3" transform="rotate(180 957.65 791.481)" class="colorffb9b3 svgShape"/><rect width="38.39" height="15.045" x="873.819" y="783.959" fill="#ffb9b3" transform="rotate(180 893.014 791.481)" class="colorffb9b3 svgShape"/><rect width="38.39" height="15.045" x="809.183" y="783.959" fill="#ffb9b3" transform="rotate(180 828.378 791.481)" class="colorffb9b3 svgShape"/><rect width="38.39" height="15.043" x="938.456" y="838.739" fill="#ffb9b3" transform="rotate(180 957.65 846.26)" class="colorffb9b3 svgShape"/><rect width="38.39" height="15.043" x="809.183" y="838.739" fill="#ffb9b3" transform="rotate(180 828.378 846.26)" class="colorffb9b3 svgShape"/><rect width="38.39" height="15.045" x="873.819" y="866.128" fill="#ffb9b3" transform="rotate(180 893.014 873.65)" class="colorffb9b3 svgShape"/><rect width="38.39" height="15.045" x="809.183" y="866.128" fill="#ffb9b3" transform="rotate(180 828.378 873.65)" class="colorffb9b3 svgShape"/><rect width="38.39" height="15.045" x="938.456" y="893.518" fill="#ffb9b3" transform="rotate(180 957.65 901.04)" class="colorffb9b3 svgShape"/><rect width="38.39" height="15.045" x="873.819" y="920.909" fill="#ffb9b3" transform="rotate(180 893.014 928.431)" class="colorffb9b3 svgShape"/><rect width="38.39" height="15.046" x="938.456" y="948.297" fill="#ffb9b3" transform="rotate(180 957.65 955.82)" class="colorffb9b3 svgShape"/><rect width="38.39" height="15.046" x="809.183" y="948.297" fill="#ffb9b3" transform="rotate(180 828.378 955.82)" class="colorffb9b3 svgShape"/><rect width="158.315" height="385.146" x="-67.088" y="611.919" fill="#ff988d" transform="rotate(180 12.07 804.492)" class="colorff988d svgShape"/><rect width="24.727" height="10.262" x="49.825" y="630.365" fill="#ffb9b3" transform="rotate(180 62.189 635.496)" class="colorffb9b3 svgShape"/><rect width="24.725" height="10.262" x="8.197" y="630.365" fill="#ffb9b3" transform="rotate(180 20.56 635.496)" class="colorffb9b3 svgShape"/><rect width="24.727" height="10.262" x="49.825" y="667.728" fill="#ffb9b3" transform="rotate(180 62.189 672.86)" class="colorffb9b3 svgShape"/><rect width="24.725" height="10.262" x="8.197" y="667.728" fill="#ffb9b3" transform="rotate(180 20.56 672.86)" class="colorffb9b3 svgShape"/><rect width="24.727" height="10.262" x="49.825" y="705.093" fill="#ffb9b3" transform="rotate(180 62.189 710.224)" class="colorffb9b3 svgShape"/><rect width="24.725" height="10.261" x="8.197" y="723.776" fill="#ffb9b3" transform="rotate(180 20.56 728.906)" class="colorffb9b3 svgShape"/><rect width="24.727" height="10.261" x="49.825" y="742.457" fill="#ffb9b3" transform="rotate(180 62.189 747.588)" class="colorffb9b3 svgShape"/><rect width="24.725" height="10.262" x="8.197" y="761.139" fill="#ffb9b3" transform="rotate(180 20.56 766.27)" class="colorffb9b3 svgShape"/><rect width="24.727" height="10.262" x="49.825" y="779.82" fill="#ffb9b3" transform="rotate(180 62.189 784.951)" class="colorffb9b3 svgShape"/><rect width="24.727" height="10.262" x="49.825" y="814.347" fill="#ffb9b3" transform="rotate(180 62.189 819.478)" class="colorffb9b3 svgShape"/><rect width="24.725" height="10.262" x="8.197" y="814.347" fill="#ffb9b3" transform="rotate(180 20.56 819.478)" class="colorffb9b3 svgShape"/><rect width="24.727" height="10.261" x="49.825" y="851.712" fill="#ffb9b3" transform="rotate(180 62.189 856.842)" class="colorffb9b3 svgShape"/><rect width="24.725" height="10.261" x="8.197" y="851.712" fill="#ffb9b3" transform="rotate(180 20.56 856.842)" class="colorffb9b3 svgShape"/><rect width="24.727" height="10.261" x="49.825" y="889.076" fill="#ffb9b3" transform="rotate(180 62.189 894.207)" class="colorffb9b3 svgShape"/><rect width="24.725" height="10.262" x="8.197" y="907.756" fill="#ffb9b3" transform="rotate(180 20.56 912.887)" class="colorffb9b3 svgShape"/><rect width="24.727" height="10.262" x="49.825" y="926.439" fill="#ffb9b3" transform="rotate(180 62.189 931.57)" class="colorffb9b3 svgShape"/><rect width="24.725" height="10.261" x="8.197" y="945.121" fill="#ffb9b3" transform="rotate(180 20.56 950.251)" class="colorffb9b3 svgShape"/><rect width="24.727" height="10.262" x="49.825" y="963.802" fill="#ffb9b3" transform="rotate(180 62.189 968.933)" class="colorffb9b3 svgShape"/><rect width="744.263" height="824.594" x="-217.935" y="188.167" fill="#ffffff" opacity=".14" class="colorfff svgShape"/><rect width="16.281" height="844.67" x="518.191" y="178.733" fill="#ffffff" class="colorfff svgShape"/><polygon fill="#ffffff" points="38.295 997.869 -19.469 997.869 290.183 197.602 347.945 197.602 38.295 997.869" opacity=".6" class="colorfff svgShape"/><polygon fill="#ffffff" points="-63.701 997.869 -92.582 997.869 217.068 197.602 245.951 197.602 -63.701 997.869" opacity=".6" class="colorfff svgShape"/><polygon fill="#ffffff" points="281.158 997.869 252.277 997.869 517.754 283.521 517.754 341.074 281.158 997.869" opacity=".6" class="colorfff svgShape"/><rect width="16.282" height="836.15" x="22.012" y="182.992" fill="#ffffff" class="colorfff svgShape"/><rect width="21.83" height="760.549" x="143.281" y="633.966" fill="#ffffff" transform="rotate(-90 154.196 1014.24)" class="colorfff svgShape"/><rect width="16.282" height="836.15" x="270.102" y="182.992" fill="#ffffff" class="colorfff svgShape"/><rect width="6.661" height="727.815" x="150.864" y="637.292" fill="#ffffff" transform="rotate(90 154.195 1001.2)" class="colorfff svgShape"/><rect width="18.87" height="760.549" x="144.761" y="-192.108" fill="#ffffff" transform="rotate(-90 154.196 188.167)" class="colorfff svgShape"/><rect width="6.662" height="728.122" x="150.864" y="-163.128" fill="#ffffff" transform="rotate(90 154.195 200.933)" class="colorfff svgShape"/><rect width="744.263" height="824.594" x="526.4" y="188.167" fill="#ffffff" opacity=".14" class="colorfff svgShape"/><rect width="16.281" height="844.67" x="518.259" y="178.733" fill="#ffffff" class="colorfff svgShape"/><polygon fill="#ffffff" points="653.33 997.869 595.567 997.869 905.217 197.602 962.981 197.602 653.33 997.869" opacity=".6" class="colorfff svgShape"/><polygon fill="#ffffff" points="551.335 997.869 522.453 997.869 832.105 197.602 860.986 197.602 551.335 997.869" opacity=".6" class="colorfff svgShape"/><polygon fill="#ffffff" points="1025.493 997.869 996.611 997.869 1262.089 283.521 1262.089 341.074 1025.493 997.869" opacity=".6" class="colorfff svgShape"/><rect width="16.281" height="836.15" x="766.348" y="182.992" fill="#ffffff" class="colorfff svgShape"/><rect width="21.83" height="760.549" x="887.615" y="633.966" fill="#ffffff" transform="rotate(-90 898.53 1014.24)" class="colorfff svgShape"/><rect width="16.282" height="836.15" x="1014.436" y="182.992" fill="#ffffff" class="colorfff svgShape"/><rect width="6.661" height="727.817" x="895.2" y="637.291" fill="#ffffff" transform="rotate(90 898.53 1001.2)" class="colorfff svgShape"/><rect width="18.87" height="760.549" x="889.096" y="-192.107" fill="#ffffff" transform="rotate(-90 898.53 188.167)" class="colorfff svgShape"/><rect width="6.662" height="728.124" x="895.199" y="-163.129" fill="#ffffff" transform="rotate(90 898.53 200.933)" class="colorfff svgShape"/><rect width="9.434" height="1531.625" x="535.017" y="-433.627" fill="#ffffff" transform="rotate(-90 539.734 332.186)" class="colorfff svgShape"/><rect width="9.435" height="1531.625" x="535.016" y="-182.036" fill="#ffffff" transform="rotate(-90 539.734 583.776)" class="colorfff svgShape"/><rect width="9.435" height="1531.625" x="535.016" y="69.553" fill="#ffffff" transform="rotate(-90 539.734 835.366)" class="colorfff svgShape"/><path fill="#cc6a5e" d="M403.91377,410.15955a57.14448,57.14448,0,0,1-57.0791-57.079h2.68567a54.39415,54.39415,0,1,0,108.7883,0h2.68407A57.14433,57.14433,0,0,1,403.91377,410.15955Z" class="colorcc6a5e svgShape"/><polygon fill="#cc6a5e" points="403.144 308.428 331.15 368.074 489.885 368.074 403.144 308.428" class="colorcc6a5e svgShape"/><polygon fill="url(#b)" points="367.366 359.653 291.334 604.702 512.426 604.702 440.574 359.653 367.366 359.653" opacity=".22"/><rect width="6.99" height="110.727" x="399.84" y="216.066" fill="#ff988d" class="colorff988d svgShape"/><path fill="#f4bf62" d="M396.838,316.32238h12.9956a5.2144,5.2144,0,0,1,5.2144,5.2144V341.6947a0,0,0,0,1,0,0h-23.4238a0,0,0,0,1,0,0V321.53618A5.2138,5.2138,0,0,1,396.838,316.32238Z" class="colorf4bf62 svgShape"/><path fill="#cc6a5e" d="M416.66329,370.08556a13.64011,13.64011,0,1,0-13.64,13.64A13.64069,13.64069,0,0,0,416.66329,370.08556Z" class="colorcc6a5e svgShape"/><path fill="#ffb9b3" d="M403.209,378.62166c-3.22916-.58315-7.66636-3.12243-8.49962-6.53589-.29737-1.21659-2.17768-.70163-1.88031.51877.99439,4.06957,5.95971,7.19105,9.86275,7.89569C403.91679,380.72258,404.44348,378.84465,403.209,378.62166Z" class="colorffb9b3 svgShape"/><polygon fill="#ff988d" points="403.144 308.428 323.778 368.074 482.513 368.074 403.144 308.428" class="colorff988d svgShape"/><path fill="#cc6a5e" d="M398.35968,301.05453h9.57012a2.5879,2.5879,0,0,1,2.5879,2.5879v9.57091a2.5879,2.5879,0,0,1-2.5879,2.5879h-9.57022a2.5878,2.5878,0,0,1-2.5878-2.5878v-9.571A2.5879,2.5879,0,0,1,398.35968,301.05453Z" class="colorcc6a5e svgShape"/></g><path fill="#ff8575" d="M830.53485,273.28171a18.03447,18.03447,0,0,1-8.74751,22.59514c-33.49876,16.72852-133.41569,55.03163-241.64637-15.25929C453.74283,198.5279,794.07019,177.55884,830.53485,273.28171Z" class="colorff8575 svgShape"/><g clip-path="url(#c)" fill="#000000" class="color000 svgShape"><rect width="744.263" height="824.594" x="-217.935" y="188.167" fill="#ffffff" opacity=".14" class="colorfff svgShape"/><rect width="16.281" height="844.67" x="518.191" y="178.733" fill="#ffffff" class="colorfff svgShape"/><polygon fill="#ffffff" points="38.295 997.869 -19.469 997.869 290.183 197.602 347.945 197.602 38.295 997.869" opacity=".6" class="colorfff svgShape"/><polygon fill="#ffffff" points="-63.701 997.869 -92.582 997.869 217.068 197.602 245.951 197.602 -63.701 997.869" opacity=".6" class="colorfff svgShape"/><polygon fill="#ffffff" points="281.158 997.869 252.277 997.869 517.754 283.521 517.754 341.074 281.158 997.869" opacity=".6" class="colorfff svgShape"/><rect width="16.282" height="836.15" x="22.012" y="182.992" fill="#ffffff" class="colorfff svgShape"/><rect width="21.83" height="760.549" x="143.281" y="633.966" fill="#ffffff" transform="rotate(-90 154.196 1014.24)" class="colorfff svgShape"/><rect width="16.282" height="836.15" x="270.102" y="182.992" fill="#ffffff" class="colorfff svgShape"/><rect width="6.661" height="727.815" x="150.864" y="637.292" fill="#ffffff" transform="rotate(90 154.195 1001.2)" class="colorfff svgShape"/><rect width="18.87" height="760.549" x="144.761" y="-192.108" fill="#ffffff" transform="rotate(-90 154.196 188.167)" class="colorfff svgShape"/><rect width="6.662" height="728.122" x="150.864" y="-163.128" fill="#ffffff" transform="rotate(90 154.195 200.933)" class="colorfff svgShape"/><rect width="744.263" height="824.594" x="526.4" y="188.167" fill="#ffffff" opacity=".14" class="colorfff svgShape"/><rect width="16.281" height="844.67" x="518.259" y="178.733" fill="#ffffff" class="colorfff svgShape"/><polygon fill="#ffffff" points="653.33 997.869 595.567 997.869 905.217 197.602 962.981 197.602 653.33 997.869" opacity=".6" class="colorfff svgShape"/><polygon fill="#ffffff" points="551.335 997.869 522.453 997.869 832.105 197.602 860.986 197.602 551.335 997.869" opacity=".6" class="colorfff svgShape"/><polygon fill="#ffffff" points="1025.493 997.869 996.611 997.869 1262.089 283.521 1262.089 341.074 1025.493 997.869" opacity=".6" class="colorfff svgShape"/><rect width="16.281" height="836.15" x="766.348" y="182.992" fill="#ffffff" class="colorfff svgShape"/><rect width="21.83" height="760.549" x="887.615" y="633.966" fill="#ffffff" transform="rotate(-90 898.53 1014.24)" class="colorfff svgShape"/><rect width="16.282" height="836.15" x="1014.436" y="182.992" fill="#ffffff" class="colorfff svgShape"/><rect width="6.661" height="727.817" x="895.2" y="637.291" fill="#ffffff" transform="rotate(90 898.53 1001.2)" class="colorfff svgShape"/><rect width="18.87" height="760.549" x="889.096" y="-192.107" fill="#ffffff" transform="rotate(-90 898.53 188.167)" class="colorfff svgShape"/><rect width="6.662" height="728.124" x="895.199" y="-163.129" fill="#ffffff" transform="rotate(90 898.53 200.933)" class="colorfff svgShape"/><rect width="9.434" height="1531.625" x="535.017" y="-433.627" fill="#ffffff" transform="rotate(-90 539.734 332.186)" class="colorfff svgShape"/><rect width="9.435" height="1531.625" x="535.016" y="-182.036" fill="#ffffff" transform="rotate(-90 539.734 583.776)" class="colorfff svgShape"/><rect width="9.435" height="1531.625" x="535.016" y="69.553" fill="#ffffff" transform="rotate(-90 539.734 835.366)" class="colorfff svgShape"/></g><path fill="#a1c0cf" d="M884.02382,999.87641H399.543a13.914,13.914,0,0,1-13.91265-13.91266V407.90447A17.77038,17.77038,0,0,1,403.401,390.13461H880.16566a17.77041,17.77041,0,0,1,17.77081,17.76986l.00159,578.05928A13.91332,13.91332,0,0,1,884.02382,999.87641Z" class="colora1c0cf svgShape"/><path fill="#c5ecfd" d="M867.10022,999.87641H382.61943a13.91536,13.91536,0,0,1-13.91424-13.91266l.00159-578.05928A17.77007,17.77007,0,0,1,386.476,390.13461H863.24222a17.7713,17.7713,0,0,1,17.77066,17.76986V985.96375A13.912,13.912,0,0,1,867.10022,999.87641Z" class="colorc5ecfd svgShape"/><path fill="#ffffff" d="M407.16856,650.95648H842.552a7.51934,7.51934,0,0,1,7.51934,7.51934V966.41047a7.52077,7.52077,0,0,1-7.52077,7.52077H407.167a7.51934,7.51934,0,0,1-7.51934-7.51934V658.47741a7.52093,7.52093,0,0,1,7.52093-7.52093Z" class="colorfff svgShape"/><path fill="#2d6fab" d="M897.93806,451.34417H385.63038v-43.4397a17.76906,17.76906,0,0,1,17.76923-17.76986H880.16423a17.76951,17.76951,0,0,1,17.77082,17.76986Z" class="color2d6fab svgShape"/><path fill="#3789db" d="M881.01446,451.34417H368.70678v-43.4397A17.77007,17.77007,0,0,1,386.476,390.13461H863.24222a17.7713,17.7713,0,0,1,17.77066,17.76986Z" class="color3789db svgShape"/><path fill="#ffffff" d="M466.618 420.73931a9.40188 9.40188 0 119.40267 9.40045A9.40269 9.40269 0 01466.618 420.73931zM430.44606 420.73931a9.40037 9.40037 0 119.39949 9.40045A9.398 9.398 0 01430.44606 420.73931zM394.26941 420.73931a9.40037 9.40037 0 119.40124 9.40045A9.40272 9.40272 0 01394.26941 420.73931z" class="colorfff svgShape"/><polygon fill="#ffffff" points="836.217 413.867 840.87 409.214 847.517 415.861 854.166 409.214 858.819 413.867 852.171 420.515 858.819 427.161 854.165 431.813 847.517 425.167 840.87 431.813 836.217 427.161 842.866 420.515 836.217 413.867" class="colorfff svgShape"/><path fill="#d1d1d1" d="M723.80021 842.5321H553.88893a1.82758 1.82758 0 010-3.65516H723.79862a1.82758 1.82758 0 01.00159 3.65516zM522.96132 842.5321H483.173a1.82758 1.82758 0 010-3.65516h39.78835a1.82758 1.82758 0 010 3.65516zM723.79862 872.18682H633.28911a1.82758 1.82758 0 01-.00158-3.65516h90.51109a1.82758 1.82758 0 010 3.65516zM606.43155 872.18682H483.173a1.82758 1.82758 0 010-3.65516H606.43155a1.82758 1.82758 0 010 3.65516zM773.66034 900.59925H603.75224a1.826 1.826 0 110-3.652h169.9081a1.826 1.826 0 010 3.652zM572.82289 900.59925H504.029a1.826 1.826 0 01-.00317-3.652h68.79711a1.826 1.826 0 110 3.652zM773.66034 930.24921h-112.823a1.826 1.826 0 01-.00158-3.652H773.66034a1.826 1.826 0 010 3.652zM633.98139 930.24921h-129.954a1.826 1.826 0 010-3.652h129.954a1.826 1.826 0 010 3.652z" class="colord1d1d1 svgShape"/><path fill="#a1c0cf" d="M813.45012 916.11182a9.98985 9.98985 0 00-3.65817.73271 5.21231 5.21231 0 00-2.11107 2.01021 9.73338 9.73338 0 00-1.24513 3.53906 39.0098 39.0098 0 00-.26644 5.51517 47.01118 47.01118 0 01-.5792 9.00776 8.18711 8.18711 0 01-2.14516 4.1043 10.8 10.8 0 01-4.58739 2.44238 24.45967 24.45967 0 01-6.37951.59791h-1.76248l.00159-7.97468a14.95643 14.95643 0 004.651-.45073 3.23323 3.23323 0 001.6107-1.29477 5.90119 5.90119 0 00.53272-2.87455q.01879-2.0259.285-7.74392a19.87255 19.87255 0 01.89527-5.53388 11.2345 11.2345 0 011.94518-3.52193 11.57751 11.57751 0 013.10689-2.54309 13.662 13.662 0 01-3.59-3.12243 13.25151 13.25151 0 01-2.125-5.58479 99.25359 99.25359 0 01-.53431-10.23451 8.83731 8.83731 0 00-.44756-3.32369 2.76246 2.76246 0 00-1.4946-1.27923 15.85634 15.85634 0 00-4.83527-.44915l-.00159-7.94216h1.76248a26.07578 26.07578 0 016.87973.69687 8.99444 8.99444 0 014.02072 2.37751 8.65539 8.65539 0 012.21 4.12127 36.43593 36.43593 0 01.58078 7.69428 38.71576 38.71576 0 00.50037 7.94232 6.90908 6.90908 0 002.22858 3.80534 8.18224 8.18224 0 004.55043 1.31175zM442.36548 851.543a8.21115 8.21115 0 004.55344-1.31191 6.942 6.942 0 002.22717-3.80535 38.76179 38.76179 0 00.49862-7.94216 36.47 36.47 0 01.57935-7.69443 8.6847 8.6847 0 012.21162-4.12127 9.05045 9.05045 0 014.02072-2.37735 26.07448 26.07448 0 016.87973-.697H465.097l.00159 7.94533a15.82331 15.82331 0 00-4.83685.44915 2.73874 2.73874 0 00-1.49461 1.27622 8.90321 8.90321 0 00-.44914 3.32369 100.03347 100.03347 0 01-.5313 10.23736 13.30973 13.30973 0 01-2.128 5.585 13.73936 13.73936 0 01-3.58854 3.12243 11.54348 11.54348 0 013.10847 2.54309 11.18239 11.18239 0 011.94217 3.52035 19.99115 19.99115 0 01.8967 5.53546q.2719 5.71731.285 7.74233a5.96358 5.96358 0 00.5313 2.87614 3.24035 3.24035 0 001.60911 1.29319 15.06262 15.06262 0 004.65574.44914v7.97785h-1.761a24.6066 24.6066 0 01-6.38253-.60092 10.8006 10.8006 0 01-4.58754-2.44095 8.18959 8.18959 0 01-2.14342-4.10589 46.95578 46.95578 0 01-.57935-9.00459 38.86071 38.86071 0 00-.26485-5.51834 9.815 9.815 0 00-1.24974-3.53891 5.1725 5.1725 0 00-2.10948-2.01036 9.96838 9.96838 0 00-3.65516-.73112z" class="colora1c0cf svgShape"/><path fill="#d1d1d1" d="M710.95918 695.63894H541.04806a1.82758 1.82758 0 010-3.65516H710.95918a1.82759 1.82759 0 010 3.65516zM510.1203 695.63894H470.33036a1.82758 1.82758 0 01.00158-3.65516H510.1203a1.82758 1.82758 0 010 3.65516zM710.95918 725.29365H620.44809a1.82607 1.82607 0 010-3.65214h90.51109a1.82607 1.82607 0 010 3.65214zM593.59211 725.29365H470.33036a1.82607 1.82607 0 01.00158-3.65214H593.59211a1.82607 1.82607 0 010 3.65214zM760.81932 753.70609H590.91121a1.826 1.826 0 010-3.652H760.81932a1.826 1.826 0 010 3.652zM559.98345 753.70609H491.18634a1.826 1.826 0 010-3.652h68.79711a1.826 1.826 0 110 3.652zM760.81773 783.35605H647.99634a1.826 1.826 0 010-3.652h112.823a1.826 1.826 0 11-.00159 3.652zM621.13893 783.35605H491.18634a1.826 1.826 0 010-3.652h129.954a1.826 1.826 0 01-.00143 3.652z" class="colord1d1d1 svgShape"/><path fill="#a1c0cf" d="M800.60925 769.22025a9.99232 9.99232 0 00-3.65832.72954 5.21428 5.21428 0 00-2.10949 2.01178 9.7228 9.7228 0 00-1.24513 3.53907 38.26907 38.26907 0 00-.26644 5.51517 47.07063 47.07063 0 01-.58237 9.00776 8.15287 8.15287 0 01-2.142 4.10272 10.77415 10.77415 0 01-4.58738 2.444 24.533 24.533 0 01-6.37793.5979h-1.76565l.00158-7.97467a15.02393 15.02393 0 004.651-.44914 3.2248 3.2248 0 001.61229-1.29636 5.91981 5.91981 0 00.53272-2.87455q.014-2.0259.282-7.74392a20.065 20.065 0 01.89828-5.53547 11.18088 11.18088 0 011.94518-3.52035 11.53074 11.53074 0 013.10689-2.54308 13.72 13.72 0 01-3.59-3.12243 13.2617 13.2617 0 01-2.12661-5.58337 99.92193 99.92193 0 01-.53273-10.23736 8.92591 8.92591 0 00-.44914-3.32226 2.74772 2.74772 0 00-1.49461-1.27765 15.79282 15.79282 0 00-4.83527-.45073v-7.94216H779.637a25.91267 25.91267 0 016.87973.69846 8.96868 8.96868 0 014.02072 2.37592 8.66718 8.66718 0 012.21162 4.11969 36.57618 36.57618 0 01.58078 7.69443 38.77564 38.77564 0 00.49878 7.94375 6.90255 6.90255 0 002.22716 3.80376 8.177 8.177 0 004.55344 1.3119zM429.526 704.6513a8.21581 8.21581 0 004.55345-1.31492 6.9127 6.9127 0 002.224-3.80376 38.46807 38.46807 0 00.50037-7.94216 36.65442 36.65442 0 01.58078-7.69443 8.69459 8.69459 0 012.20861-4.12127 8.98952 8.98952 0 014.02373-2.37434 25.82823 25.82823 0 016.87814-.7h1.76248v7.94533a15.74349 15.74349 0 00-4.83527.44915 2.74249 2.74249 0 00-1.4962 1.27622 8.9417 8.9417 0 00-.44914 3.32369 99.11369 99.11369 0 01-.53114 10.23593 13.28384 13.28384 0 01-2.125 5.585 13.77086 13.77086 0 01-3.59013 3.12227 11.603 11.603 0 013.10847 2.54309 11.24887 11.24887 0 011.94217 3.52352 20.0276 20.0276 0 01.8967 5.53388q.26953 5.71492.282 7.74075a5.97656 5.97656 0 00.53273 2.87772 3.23492 3.23492 0 001.61228 1.29319 15.00559 15.00559 0 004.65257.45231l.00158 7.97467h-1.76247a24.62338 24.62338 0 01-6.38269-.60092 10.78594 10.78594 0 01-4.586-2.44094 8.17463 8.17463 0 01-2.145-4.10589 46.88051 46.88051 0 01-.57777-9.00618 39.03537 39.03537 0 00-.26628-5.51675 9.86476 9.86476 0 00-1.24688-3.53891 5.1938 5.1938 0 00-2.11091-2.01036 9.94257 9.94257 0 00-3.65674-.731z" class="colora1c0cf svgShape"/><path fill="#d1d1d1" d="M593.35977,611.35083h238.2004a18.998,18.998,0,0,0,18.99581-18.999V510.24142a18.99724,18.99724,0,0,0-18.99581-18.9974H593.35977a18.99893,18.99893,0,0,0-18.999,18.9974l.00158,82.11043A18.99631,18.99631,0,0,0,593.35977,611.35083Z" class="colord1d1d1 svgShape"/><path fill="#ffffff" d="M584.90186,611.35083h238.2004a18.998,18.998,0,0,0,18.99581-18.999V510.24142a18.99725,18.99725,0,0,0-18.99581-18.9974h-238.202a18.99859,18.99859,0,0,0-18.99739,18.9974l.00158,82.11043A18.99631,18.99631,0,0,0,584.90186,611.35083Z" class="colorfff svgShape"/><rect width="136.773" height="25.074" x="688.207" y="508.143" fill="#ffce45" class="colorffce45 svgShape"/><rect width="25.596" height="3.818" x="688.207" y="549.388" fill="#d1d1d1" class="colord1d1d1 svgShape"/><rect width="102.058" height="3.818" x="722.922" y="549.388" fill="#d1d1d1" class="colord1d1d1 svgShape"/><rect width="67.504" height="3.818" x="688.207" y="558.429" fill="#d1d1d1" class="colord1d1d1 svgShape"/><rect width="25.596" height="3.818" x="761.153" y="558.429" fill="#d1d1d1" class="colord1d1d1 svgShape"/><rect width="31.88" height="3.818" x="793.101" y="558.429" fill="#d1d1d1" class="colord1d1d1 svgShape"/><rect width="80.736" height="3.818" x="688.208" y="567.469" fill="#d1d1d1" class="colord1d1d1 svgShape"/><rect width="48.739" height="3.818" x="776.241" y="567.469" fill="#d1d1d1" class="colord1d1d1 svgShape"/><rect width="63.829" height="3.816" x="761.152" y="576.712" fill="#d1d1d1" class="colord1d1d1 svgShape"/><rect width="15.774" height="3.818" x="688.207" y="576.508" fill="#d1d1d1" class="colord1d1d1 svgShape"/><rect width="44.891" height="3.818" x="709.83" y="576.508" fill="#d1d1d1" class="colord1d1d1 svgShape"/><rect width="25.595" height="3.816" x="688.207" y="585.55" fill="#d1d1d1" class="colord1d1d1 svgShape"/><rect width="102.059" height="3.816" x="722.922" y="585.55" fill="#d1d1d1" class="colord1d1d1 svgShape"/><path fill="#d1d1d1" d="M429.88843,612.59612h92.26278a19.54576,19.54576,0,0,0,19.54424-19.54883l.00143-84.48635a19.54666,19.54666,0,0,0-19.54725-19.548h-92.2612a19.54632,19.54632,0,0,0-19.54566,19.548v84.48635A19.547,19.547,0,0,0,429.88843,612.59612Z" class="colord1d1d1 svgShape"/><path fill="#ffffff" d="M419.905,612.59612h92.26278a19.54562,19.54562,0,0,0,19.54407-19.54883l.00159-84.48635a19.54665,19.54665,0,0,0-19.54725-19.548H419.90657a19.54664,19.54664,0,0,0-19.54724,19.548l.00142,84.48635A19.54577,19.54577,0,0,0,419.905,612.59612Z" class="colorfff svgShape"/><path fill="#c5ecfd" d="M676.67521,514.30924l.00159,71.3256a6.15981,6.15981,0,0,1-6.14559,6.14241H593.61384a6.15518,6.15518,0,0,1-6.14257-6.14241v-71.3256a6.16113,6.16113,0,0,1,6.14416-6.16636H670.5328A6.16066,6.16066,0,0,1,676.67521,514.30924Z" class="colorc5ecfd svgShape"/><path fill="#2d6fab" d="M676.67521,550.37043l.00159,35.26441a6.15981,6.15981,0,0,1-6.14559,6.14241H593.61384a6.15518,6.15518,0,0,1-6.14257-6.14241v-9.97266l13.3785-14.89468a2.92652,2.92652,0,0,1,4.30255-.0774l17.68089,18.28023a2.94021,2.94021,0,0,0,4.27781-.04948l36.33445-39.642a2.97417,2.97417,0,0,1,4.476.14781Z" class="color2d6fab svgShape"/><path fill="#ffce45" d="M625.20136,529.71745a10.77183,10.77183,0,1,0-10.77024,10.77326A10.7698,10.7698,0,0,0,625.20136,529.71745Z" class="colorffce45 svgShape"/><path fill="#ff5847" d="M441.2117 517.29227h12.54667l-.06661 39.467q-.01165 7.73607-1.37994 11.90389a16.92452 16.92452 0 01-6.64739 8.74291q-4.81377 3.29435-12.67846 3.29435-9.23455 0-14.19607-5.16689-4.97173-5.16659-4.99339-15.16255l11.86677-1.3598q.20222 5.3595 1.56122 7.572a6.75972 6.75972 0 006.20141 3.35779q4.21429 0 5.95971-2.40225 1.74472-2.40438 1.75788-9.97266zM463.89359 559.35187l12.2493-1.19105q1.09194 6.16358 4.47145 9.0574 3.37333 2.89468 9.11926 2.89469 6.07747 0 9.16731-2.57417a7.67513 7.67513 0 003.09294-6.01538 5.67019 5.67019 0 00-1.29335-3.76522 10.29225 10.29225 0 00-4.52236-2.701q-2.20718-.76769-10.07337-2.72119-10.11975-2.51358-14.193-6.1689a16.35719 16.35719 0 01-3.00619-21.45294 16.93606 16.93606 0 017.792-6.31449A31.18873 31.18873 0 01488.97 516.229q11.73672 0 17.66091 5.145 5.92641 5.14469 6.20744 13.7363l-12.58854.55365q-.79908-4.80426-3.45374-6.90986-2.653-2.10487-7.97007-2.10726-5.48726 0-8.59256 2.25587a4.55389 4.55389 0 00-2.00894 3.86736 4.77953 4.77953 0 001.86794 3.7898q2.37419 1.99688 11.56 4.16631 9.18128 2.16627 13.57834 4.486a17.44967 17.44967 0 016.88115 6.33686 19.63521 19.63521 0 01-.52336 19.96387 17.89146 17.89146 0 01-8.43318 6.95554 35.331 35.331 0 01-13.57056 2.27522q-11.82022 0-18.14859-5.46411Q465.11018 569.81309 463.89359 559.35187z" class="colorff5847 svgShape"/><path d="M547.793,984.0633A39.25058,39.25058,0,0,1,542.781,981.384c-.01539-.15955-12.02014-136.964-20.41144-149.68413a10.48007,10.48007,0,0,0-2.31391-2.28283h24.78678v-4.91583l-.42742-.14417,14.17767-66.29272a4.75961,4.75961,0,0,0-4.4234-5.89929H467.78109c-15.844-27.37315-39.553-85.7207-57.66448-88.70214a22.78008,22.78008,0,0,0-1.7934-2.063v-.01538s-2.283-2.87-5.13739-3.22c-.09452-1.31651-.17509-3.07581-.17509-5.13724,0-1.507.048-3.17191.15812-4.96389.0479-.793.12688-1.634.223-2.4595a15.51617,15.51617,0,0,0,5.78938-4.29794c10.16614-13.05165,4.94676-67.57656,2.64839-72.271,8.65774,1.96531,13.273-26.39129,3.80534-37.905-8.1358,9.16652-28.65714,6.18508-46.92817,8.8498V985.96676A13.91638,13.91638,0,0,0,382.61642,999.875h12.70305q13.91583-.78291,28.88029-2.283a228.52738,228.52738,0,0,0,32.337-5.39289v3.15653h39.58551v-3.53589s-8.65933-3.443-17.44554-7.34441c24.59932-11.79858,32.75066-30.06976,32.43315-53.272l17.8111,53.32006h.01539a69.20586,69.20586,0,0,0-2.33247,7.29636v3.53589h39.57v-3.53589S556.91224,988.1243,547.793,984.0633ZM436.33139,793.9079c-.57-.28642-1.17393-.556-1.792-.793-.47547-1.39691-.98345-2.9659-1.5379-4.66335a5.41217,5.41217,0,0,0,.8239.72954,9.74288,9.74288,0,0,0,3.11007,1.90347Zm49.75165,80.757c.44455-4.188.81011-8.1358,1.126-11.80031a4.09122,4.09122,0,0,0,.98346-.206l7.46986,22.346A121.53747,121.53747,0,0,0,486.083,874.66487Z" opacity=".11" fill="#000000" class="color000 svgShape"/><path fill="#d4ac3b" d="M997.51274,191.83564l.003-.01238-.15337-.15256c-.08516-.08834-.17191-.17509-.25867-.25947l-5.498-5.492-.08675,2.90484a9.40712,9.40712,0,0,0-.94174-.048H724.25093a9.42222,9.42222,0,0,0-9.42281,9.422V307.11019a9.42219,9.42219,0,0,0,9.42281,9.42138h16.23133l-8.22256,20.47884-16.64795,23.98143,4.99957,5.03732,47.18526-49.49759H990.57719A9.42219,9.42219,0,0,0,1000,307.11019V198.198A9.378,9.378,0,0,0,997.51274,191.83564Z" class="colord4ac3b svgShape"/><path fill="#ffce45" d="M715.77054,183.73853H989.06177a5.9404,5.9404,0,0,1,5.9404,5.9404V305.55319a5.9409,5.9409,0,0,1-5.9409,5.9409H715.77164a5.9415,5.9415,0,0,1-5.9415-5.9415V189.67893A5.9404,5.9404,0,0,1,715.77054,183.73853Z" class="colorffce45 svgShape"/><polygon fill="#ffce45" points="736.366 309.296 715.612 360.992 769.223 304.756 736.366 309.296" class="colorffce45 svgShape"/><path fill="#f7f7f7" d="M748.55288 274.8591l.0341-59.78553 12.06978.00317-.00936 23.53688 23.65313.01.0092-23.53371 12.07437.00539-.02791 59.78855-12.0758-.00539.01538-26.14039-23.65154-.01317-.01539 26.1404zM822.29215 274.89479l.02332-49.67205-17.73831-.01078.00317-10.11127 47.51372.02093-.00476 10.11587-17.69945-.0092-.02331 49.6749zM859.69237 274.91556l.02775-59.78855 18.06977.007L888.616 255.92356l10.7501-40.774 18.10688.00539-.02791 59.78935-11.21637-.0046.02331-47.06616-11.89167 47.06-11.62824-.00856-11.80175-47.06917-.02173 47.066zM929.75951 274.94966l.02776-59.29992 12.076.0054-.02633 49.22511 30.01853.01777-.00777 10.07337z" class="colorf7f7f7 svgShape"/><path fill="#2d6fab" d="M515.19711,107.63111v-.0008l-11.13723-6.80376-8.43318,5.02194H302.24055a10.70225,10.70225,0,0,0-10.7022,10.7022v110.825l-6.635,3.95015,10.04863,5.95273a10.66748,10.66748,0,0,0,3.96172,2.34722l.01237.00777.00777-.00079a10.681,10.681,0,0,0,3.30672.52654H459.82037L494.939,276.99713l7.67429,12.78219,10.80735,6.60488-22.5704-56.2249H509.287a10.70252,10.70252,0,0,0,10.70363-10.70205V116.55069A10.69116,10.69116,0,0,0,515.19711,107.63111Z" class="color2d6fab svgShape"/><path fill="#3789db" d="M498.4781,99.243H291.43162A10.70255,10.70255,0,0,0,280.72783,109.945V222.85158a10.70259,10.70259,0,0,0,10.70379,10.7022H449.01286l53.60046,56.22554-22.572-56.22554H498.4781a10.70221,10.70221,0,0,0,10.702-10.7022V109.945A10.70218,10.70218,0,0,0,498.4781,99.243Z" class="color3789db svgShape"/><path fill="#ffffff" d="M357.63283 172.09316l10.73773 3.40425q-2.46935 8.98026-8.2132 13.33823-5.74277 4.35939-14.57242 4.359-10.926 0-17.95828-7.46431-7.03451-7.4632-7.03451-20.40921 0-13.69269 7.07178-21.26944 7.07163-7.57716 18.59472-7.57676 10.06386 0 16.349 5.94893 3.74254 3.51726 5.6127 10.10192l-10.96229 2.61905a11.32934 11.32934 0 00-11.56164-9.20363 12.47762 12.47762 0 00-9.89526 4.37692q-3.79845 4.378-3.79758 14.17989 0 10.4019 3.74191 14.8157a12.14745 12.14745 0 009.72779 4.41484 11.08958 11.08958 0 007.59372-2.80572Q356.24742 178.11638 357.63283 172.09316zM375.06758 174.41246l10.77484-1.04689q.97133 5.42469 3.94634 7.96849a11.93565 11.93565 0 008.0259 2.54467q5.35023 0 8.063-2.26364a6.73743 6.73743 0 002.71182-5.2944 4.99471 4.99471 0 00-1.14141-3.31053 9.1143 9.1143 0 00-3.98345-2.37593q-1.94693-.67371-8.86836-2.39448-8.90484-2.20812-12.4956-5.4254A14.27077 14.27077 0 01377.05 151.77783a14.09491 14.09491 0 012.37592-7.83844 14.86534 14.86534 0 016.84706-5.55624 27.44273 27.44273 0 0110.79355-1.90823q10.3265 0 15.54524 4.52712a15.98025 15.98025 0 015.48107 12.08516l-11.07379.48641q-.7132-4.22832-3.04964-6.07977-2.33945-1.85271-7.016-1.8524a12.64986 12.64986 0 00-7.55645 1.98324 3.99531 3.99531 0 00-1.75947 3.40426 4.21016 4.21016 0 001.64639 3.32988q2.09537 1.75993 10.17709 3.66673a53.76487 53.76487 0 0111.95352 3.94713 15.40467 15.40467 0 016.06042 5.5748 17.26226 17.26226 0 01-.429 17.5656 15.69262 15.69262 0 01-7.40785 6.11688 31.07715 31.07715 0 01-11.935 2.00179q-10.40333 0-15.97583-4.80735Q376.15181 183.61657 375.06758 174.41246zM426.17444 174.41246l10.775-1.04689q.97108 5.42469 3.94619 7.96849a11.93564 11.93564 0 008.02589 2.54467q5.35023 0 8.063-2.26364a6.73741 6.73741 0 002.71183-5.2944 4.99471 4.99471 0 00-1.14141-3.31053 9.1143 9.1143 0 00-3.98345-2.37593q-1.94692-.67371-8.86836-2.39448-8.90484-2.20812-12.4956-5.4254a14.27078 14.27078 0 01-5.05065-11.03652 14.09492 14.09492 0 012.37593-7.83844 14.86531 14.86531 0 016.84705-5.55624 27.44278 27.44278 0 0110.79356-1.90823q10.32648 0 15.54524 4.52712a15.98025 15.98025 0 015.48107 12.08516l-11.07379.48641q-.71321-4.22832-3.04964-6.07977-2.33945-1.85271-7.016-1.8524a12.64991 12.64991 0 00-7.55646 1.98324 3.9953 3.9953 0 00-1.75946 3.40426 4.21018 4.21018 0 001.64638 3.32988q2.09538 1.75993 10.1771 3.66673a53.75917 53.75917 0 0111.95352 3.94713 15.40467 15.40467 0 016.06042 5.5748 17.26226 17.26226 0 01-.429 17.5656A15.69262 15.69262 0 01460.745 191.23a31.07722 31.07722 0 01-11.935 2.00179q-10.40333 0-15.97583-4.80735Q427.25868 183.61657 426.17444 174.41246z" class="colorfff svgShape"/><path fill="#b83f33" d="M297.17294,326.45919v-.00063l-10.79355-6.5933-8.17133,4.86635H120.845A10.37107,10.37107,0,0,0,110.4743,335.103v89.93507l-6.429,3.8285,9.73731,5.76845a10.34945,10.34945,0,0,0,3.83944,2.27442l.01237.00777.00619-.00079a10.35823,10.35823,0,0,0,3.20443.51036H243.51047L277.54053,473.124l7.4356,12.38649,10.47446,6.40029-21.87194-54.484h17.86676a10.371,10.371,0,0,0,10.37074-10.37153V335.103A10.35972,10.35972,0,0,0,297.17294,326.45919Z" class="colorb83f33 svgShape"/><path fill="#ff5847" d="M280.96953,318.33052H110.37058A10.37093,10.37093,0,0,0,100,328.7019v91.95225a10.37107,10.37107,0,0,0,10.37058,10.37153H233.036l51.94012,54.48479-21.87194-54.48479h17.86534a10.37141,10.37141,0,0,0,10.37216-10.37153V328.7019A10.37127,10.37127,0,0,0,280.96953,318.33052Z" class="colorff5847 svgShape"/><path fill="#ffffff" d="M135.11564 398.5746V351.64722h15.20442q8.6422 0 11.26744.70464a12.30559 12.30559 0 016.75412 4.59293 14.57181 14.57181 0 012.72135 9.1394 15.31148 15.31148 0 01-1.569 7.26607 12.867 12.867 0 01-3.985 4.6256 13.73249 13.73249 0 01-4.91425 2.22478 54.05569 54.05569 0 01-9.82707.67213h-6.1781V398.5746zm9.47388-38.9884v13.31571h5.18688q5.60121 0 7.48984-.73557a6.22348 6.22348 0 002.9613-2.30535 6.31019 6.31019 0 001.07179-3.649 6.06611 6.06611 0 00-1.5038-4.22515 6.55525 6.55525 0 00-3.81011-2.08078 45.60792 45.60792 0 00-6.81771-.31989zM178.87349 398.5746V351.64722H188.349v18.47006h18.56523V351.64722h9.47546V398.5746h-9.47546V378.05627H188.349V398.5746zM226.18579 398.5746V351.64722H241.3902q8.6422 0 11.26744.70464a12.30652 12.30652 0 016.75428 4.59293 14.57175 14.57175 0 012.72119 9.1394 15.31341 15.31341 0 01-1.56883 7.26607 12.867 12.867 0 01-3.985 4.6256 13.73317 13.73317 0 01-4.91441 2.22478 54.05448 54.05448 0 01-9.82707.67213h-6.1781V398.5746zm9.47387-38.9884v13.31571h5.18688q5.60121 0 7.49-.73557a6.225 6.225 0 002.9613-2.30535 6.31019 6.31019 0 001.07179-3.649 6.06547 6.06547 0 00-1.504-4.22515 6.55531 6.55531 0 00-3.80995-2.08078 45.60792 45.60792 0 00-6.81771-.31989z" class="colorfff svgShape"/><path fill="#ffce45" d="M162.989,946.83056c18.65673,41.93954,86.52764,62.22553,199.77962,50.75842,79.823-8.07078,92.69956-39.68923,84.982-85.9965-6.30513-37.75008-73.24984-72.81149-73.24984-72.81149-19.2732-53.5819-61.65411-118.4544-119.382-116.73522h-.04345a80.24119,80.24119,0,0,0-20.0676,3.22c-32.32627,9.34843-53.2303,31.5317-66.06355,58.699A168.23612,168.23612,0,0,0,158.713,812.32151C144.95191,864.09589,152.40782,923.01486,162.989,946.83056Z" class="colorffce45 svgShape"/><path fill="#d4ac3b" d="M235.02465,881.36015s59.24266-40.19721,127.74716-33.87193C362.77181,847.48822,300.83428,808.77626,235.02465,881.36015Z" class="colord4ac3b svgShape"/><path fill="#ffde6f" d="M267.018 927.50328c3.5251 20.63442 41.78475 31.31331 85.45125 23.85122 43.6695-7.4605 76.21273-30.23692 72.6846-50.86991-3.52352-20.63443-26.64853-39.10528-85.44966-23.85122C296.82134 887.75664 263.49291 906.87029 267.018 927.50328zM298.92606 755.15724c-6.7898-19.80116-33.12225-28.7098-58.8135-19.89727-25.69141 8.81111-41.01192 32.00574-34.219 51.80706 6.78981 19.80116 25.37533 36.79137 58.81366 19.89568C289.09138 794.64363 305.71761 774.95856 298.92606 755.15724z" class="colorffde6f svgShape"/><path fill="#d4ac3b" d="M158.716,812.3307l-.003-.00919c.01539-.05742.03252-.11467.0479-.17034q.91542-3.42686,1.95929-6.80074c.12545-.40743.26168-.80694.39031-1.21278q.885-2.7993,1.85858-5.55546c.18112-.51258.367-1.02072.55286-1.53013q.98964-2.71579,2.0738-5.3821c.16875-.41822.33305-.83628.50339-1.25291.90605-2.17609,1.843-4.33363,2.84505-6.45231,12.83325-27.1673,33.73728-49.35057,66.06355-58.699a80.24119,80.24119,0,0,1,20.0676-3.22h.04345S164.62461,735.0695,168.73192,840.6659C172.11921,927.76338,229.26936,978.83,307.3624,982.15364c149.94423,6.38412,140.3882-70.56116,140.3882-70.56116,7.71759,46.30727-5.159,77.92572-84.982,85.9965-113.252,11.46711-181.12289-8.81888-199.77962-50.75842C152.4232,923.02565,144.95191,864.09589,158.716,812.3307Z" class="colord4ac3b svgShape"/><path fill="#23100f" d="M274.6303,565.3395s-21.52653,43.50552,25.82288,70.761l4.37534-36.28037-16.45431-26.01653Z" class="color23100f svgShape"/><path fill="#3c89d9" d="M472.72944,976.48829c-4.25767,1.97927-7.56423,15.32669-7.56423,15.32669h39.58234s-9.271-3.69068-18.38411-7.75787C475.94322,979.4093,476.06391,974.93785,472.72944,976.48829Z" class="color3c89d9 svgShape"/><rect width="39.582" height="3.545" x="465.165" y="991.815" fill="#2d6fab" transform="rotate(180 484.956 993.588)" class="color2d6fab svgShape"/><path fill="#3c89d9" d="M402.66848,976.48829c-4.2575,1.97927-7.56581,15.32669-7.56581,15.32669h39.58392s-9.27262-3.69068-18.38411-7.75787C405.88226,979.4093,406.00454,974.93785,402.66848,976.48829Z" class="color3c89d9 svgShape"/><rect width="39.584" height="3.545" x="395.103" y="991.815" fill="#2d6fab" transform="rotate(180 414.895 993.588)" class="color2d6fab svgShape"/><path fill="#ff5847" d="M460.93388,831.70143c8.39288,12.73112,20.41762,149.68873,20.41762,149.68873L467.49292,984.525,426.7614,862.66013s-64.21115-2.066-72.13-14.55545c-7.428-11.715-7.428-32.36972-7.428-32.36972,3.63343.158-20.43316-20.40525-20.43316-20.40525C381.859,795.32971,454.56689,822.03851,460.93388,831.70143Z" class="colorff5847 svgShape"/><path fill="#b83f33" d="M426.7614,862.66013,467.49292,984.525l4.699-1.11985s-32.56-135.731-37.16471-147.36244c-8.37893-21.16413-73.64633-35.6996-73.64633-35.6996L391.494,859.15056S422.82283,864.19184,426.7614,862.66013Z" class="colorb83f33 svgShape"/><path fill="#ff5847" d="M425.92512,840.09274c4.56423,12.32987-15.78377,140.59278-15.78377,140.59278l-12.23693.37017L380.49917,861.50317s-84.6551,7.5969-92.57569-4.8911c-7.428-11.7134-11.75988-45.93393-11.75988-45.93393,3.63184.15812,38.06759-15.7216,38.06759-15.7216C369.32165,794.95654,421.90758,829.23892,425.92512,840.09274Z" class="colorff5847 svgShape"/><path fill="#b83f33" d="M388.14095,853.987c4.56264,12.33288,15.92,126.88424,15.92,126.88424l-6.15653.18445L380.49917,861.50317s-84.6551,7.5969-92.57569-4.8911c-7.428-11.7134-11.75988-45.93393-11.75988-45.93393,3.63184.15812,38.06759-15.7216,38.06759-15.7216C264.03816,885.13775,384.12181,843.1346,388.14095,853.987Z" class="colorb83f33 svgShape"/><path fill="#3c89d9" d="M347.80116,663.356c21.31606,1.3801,50.84676,82.99334,65.9722,99.77293,13.07019,14.50136-30.35777,33.31748-41.37431,26.05063C361.38251,781.91885,335.21737,662.53984,347.80116,663.356Z" class="color3c89d9 svgShape"/><path fill="#2d6fab" d="M347.80116,663.356c24.07278,21.11005,11.794,127.60157,50.84676,118.70372,0,0-16.88189,15.68766-26.24887,7.11984C348.7475,767.55229,301.48469,665.11543,347.80116,663.356Z" class="color2d6fab svgShape"/><path fill="#ffb5ad" d="M345.76146,629.278c-.45232,1.14776-.86736,2.22256-1.17869,3.22933a55.67523,55.67523,0,0,0-1.94517,8.09076,61.31925,61.31925,0,0,0-.90305,7.46526,69.47469,69.47469,0,0,0,.27881,12.88115c-21.10989,10.414-43.99177-3.92461-43.99177-3.92461a69.41432,69.41432,0,0,0,2.43159-10.17233,156.71713,156.71713,0,0,0,1.90822-16.97784,1.333,1.333,0,0,0,.03394-.347,1.37862,1.37862,0,0,0,.03727-.24471Z" class="colorffb5ad svgShape"/><path fill="#c48b86" d="M345.76146,629.278c-.45232,1.14776-.86736,2.22256-1.17869,3.22933a33.25227,33.25227,0,0,0-1.94517,8.09076,61.31925,61.31925,0,0,0-.90305,7.46526c-10.03293,4.40928-21.353,6.17969-29.58176,4.40928a27.99953,27.99953,0,0,1-11.69961-5.62507,156.71713,156.71713,0,0,0,1.90822-16.97784,1.333,1.333,0,0,0,.03394-.347,1.37862,1.37862,0,0,0,.03727-.24471Z" class="colorc48b86 svgShape"/><path fill="#3c89d9" d="M296.74854,651.48143s-28.00358,18.51733-38.42078,26.62062c0,0,19.67428,119.78169,17.07236,155.66081,0,0,84.195-14.46726,100.39843-32.98443,0,0-16.20342-42.82245-16.20342-74.06931,0-31.24987-2.8931-59.60347-15.62406-67.70359C343.97107,659.00553,324.52453,671.73506,296.74854,651.48143Z" class="color3c89d9 svgShape"/><path fill="#2d6fab" d="M267.00723,735.96778s11.859,82.459,8.39289,97.79508c0,0,23.51357-3.19507,38.18986-8.063,0,0-29.77842-44.32308-29.02413-72.58231,1.58595-59.42854-25.854-75.1549-25.854-75.1549S272.21567,723.81443,267.00723,735.96778Z" class="color2d6fab svgShape"/><path fill="#3c89d9" d="M258.71188,677.96264c-27.21678,16.88649-39.69082,92.83738-28.8416,139.6696,3.412,14.72118,20.60207,14.14976,35.35576,4.20343,10.42181-7.02691,4.39866-15.40425,5.40368-18.44295,2.51691-7.59991,10.2732-66.84717,10.2732-66.84717S277.28963,697.40918,258.71188,677.96264Z" class="color3c89d9 svgShape"/><path fill="#ffb5ad" d="M363.83725,802.53012a58.00286,58.00286,0,0,0-16.66175,5.09394c-2.03209.985-3.34844,1.925-3.68466,4.07321a2.3,2.3,0,0,0,.27421,3.2168c5.7491,4.32586,10.44036,3,16.09351-.56365,5.84822-3.69084,8.84965-.71558,14.05365,1.53949,1.92979.83628,3,1.26385,4.84922.30815a2.14752,2.14752,0,0,0,.85959-1.77326C380.126,807.26928,368.699,801.92143,363.83725,802.53012Z" class="colorffb5ad svgShape"/><path fill="#ffb5ad" d="M369.20858,798.7262a69.36063,69.36063,0,0,0-16.82448,2.88073c-2.0646.635-6.54366-1.85081-6.95712-.19206-.7048.635-.85341,6.34542.20744,7.061,5.58178,3.76348,13.38771,1.64322,19.16313-.76982,5.97684-2.4982,8.86217.02633,13.97467,2.13422,1.89585.7822,2.94592,1.188,4.83225.56381a1.56173,1.56173,0,0,0,.923-1.33046C385.29574,803.512,374.08413,798.57284,369.20858,798.7262Z" class="colorffb5ad svgShape"/><path fill="#ffb5ad" d="M371.59528,796.49285a69.3725,69.3725,0,0,0-16.82447,2.88074c-2.0646.635-3.4152,1.284-3.83025,2.94116a1.55253,1.55253,0,0,0,.15336,2.53531c5.58178,3.76205,10.31491,3.03568,16.09034.62265,5.97684-2.49821,8.86217.02632,13.97467,2.13422,1.89569.78219,2.94734,1.18947,4.83225.56381a1.55909,1.55909,0,0,0,.923-1.33046C387.684,801.27864,376.47083,796.33806,371.59528,796.49285Z" class="colorffb5ad svgShape"/><path fill="#ffb5ad" d="M384.03046,801.36539l.00143.00159-.00619-.00777c-1.12587-2.39131-3.93856-4.65733-6.985-6.28341a20.35909,20.35909,0,0,0-14.22557-3.08374,159.36386,159.36386,0,0,0-22.702,5.32787l8.42223,4.17868c.87037,5.60969,11.03509,3.33289,16.26225,1.14919,5.97684-2.4982,8.86217.02632,13.97467,2.13422,1.89585.78061,2.94893,1.18788,4.83225.56222a1.5553,1.5553,0,0,0,.923-1.33046A4.72235,4.72235,0,0,0,384.03046,801.36539Z" class="colorffb5ad svgShape"/><path fill="#ffffff" d="M296.74854 651.48143s16.60292 14.12185 39.62722 10.47763l-2.47188 13.28081S296.43262 668.34159 296.74854 651.48143zM336.37576 661.95906l8.07855 11.02431s2.3293-7.97324 2.4346-11.60207c0 0-2.27822-2.8606-5.142-3.21062C341.74692 658.17068 341.27145 661.43554 336.37576 661.95906z" class="colorfff svgShape"/><path fill="#2d6fab" d="M283.15641,810.72318c0,14.60968-13.1338,26.45171-29.33563,26.45171s-29.337-11.842-29.337-26.45171c0-14.60667,13.13522-26.4487,29.337-26.4487S283.15641,796.11651,283.15641,810.72318Z" class="color2d6fab svgShape"/><path fill="#ffb5ad" d="M293.05928,616.07778s1.70983,18.09451,11.65,27.6009c6.7714,6.47546,35.09708,7.80275,43.03005-2.37275,10.17233-13.04847,4.95136-67.57037,2.66076-72.268-2.2906-4.69888-42.02789-22.13442-55.5163-2.92863C281.39076,585.31892,293.05928,616.07778,293.05928,616.07778Z" class="colorffb5ad svgShape"/><path fill="#3c1e01" d="M354.20859,531.12674c-13.8432,15.57394-63.43213-3.97108-76.98874,28.81828a17.87408,17.87408,0,0,1-3.48324-11.98984c.13782-2.22478-3.32988-2.04985-3.46928.16414a20.96563,20.96563,0,0,0,4.00216,13.74931,35.56742,35.56742,0,0,0-9.70321,3.66134c-1.93138,1.13221-.07279,4.064,1.85541,2.935a30.74162,30.74162,0,0,1,8.20861-3.12544c-3.92921,5.09092-8.76306,31.11982,3.61328,47.86373,3.35,4.52711,8.08157,4.41863,10.13063,2.51675,8.35879-7.75628,10.76881-23.2457,11.26442-41.91639,11.9272-7.09954,36.33763-8.04286,50.76144-4.76564C359.05781,571.00343,363.66232,542.65062,354.20859,531.12674Z" class="color3c1e01 svgShape"/><path fill="#23100f" d="M354.20859,531.12674c2.42064,7.41641,2.08918,20.41381-7.33823,24.721-14.66694,6.70241-59.77237-7.3644-55.637,9.4918,5.51358,22.4884-4.90822,52.28236-2.85916,50.38048,8.35879-7.75628,10.76881-23.2457,11.26442-41.91639,11.9272-7.09954,36.33763-8.04286,50.76144-4.76564C359.05781,571.00343,363.66232,542.65062,354.20859,531.12674Z" class="color23100f svgShape"/><path fill="#ffb5ad" d="M294.42226,603.638c-2.74292-2.80953-14.35419-6.15336-15.80851-1.51015-2.3247,7.42641,6.646,21.75268,17.35577,15.94014C299.874,615.94916,296.798,606.0772,294.42226,603.638Z" class="colorffb5ad svgShape"/><path fill="#c48b86" d="M292.37637,608.36939s-8.51072-5.5802-9.31132-3.05266c-1.569,4.93138,5.43778,9.00317,7.445,9.71875,0,0-3.91066-4.29017-2.90247-6.1348C288.61733,607.05764,292.37637,608.36939,292.37637,608.36939Z" class="colorc48b86 svgShape"/><rect width="112.331" height="4.919" x="371.075" y="824.496" fill="#d1d1d1" class="colord1d1d1 svgShape"/><polygon fill="#ffffff" points="371.075 829.415 320.309 821.575 320.309 816.655 371.075 824.496 371.075 829.415" class="colorfff svgShape"/><polygon fill="#d1d1d1" points="320.309 816.655 447.775 812.924 483.405 824.496 371.075 824.496 320.309 816.655" class="colord1d1d1 svgShape"/><path fill="#ffffff" d="M480.23958,824.49643H368.35517l14.72895-68.88687a4.22071,4.22071,0,0,1,4.05165-3.43995h100.761c4.00043,0,6.96331,3.95253,6.0774,8.10028Z" class="colorfff svgShape"/><path fill="#d1d1d1" d="M482.95918,824.49643H371.07477l14.73054-68.88687a4.21916,4.21916,0,0,1,4.05006-3.43995H492.7382a4.76167,4.76167,0,0,1,4.425,5.89786Z" opacity=".31" class="colord1d1d1 svgShape"/><path fill="#ffffff" d="M482.95918,824.49643H396.39586l58.89883-72.32682H492.7382a4.76167,4.76167,0,0,1,4.425,5.89786Z" class="colorfff svgShape"/><path fill="#ffb5ad" d="M232.0727,813.87019c-.3516,3.46786,2.36815,19.33521,15.91382,19.89267,33.5281,1.37994,99.21689-18.0279,99.21689-18.0279l-.3145-19.97926s-88.79032-3.23075-99.62717-.426C236.41236,798.13765,232.94006,805.29619,232.0727,813.87019Z" class="colorffb5ad svgShape"/><path fill="#c48b86" d="M234.02264,823.22179s14.1063,4.13682,34.29015,2.22257c20.17909-1.91584,78.89062-9.7094,78.89062-9.7094s-78.04039,23.54323-103.315,17.30153A13.78926,13.78926,0,0,1,234.02264,823.22179Z" class="colorc48b86 svgShape"/><path fill="#161228" d="M331.67371 633.41182a10.5555 10.5555 0 01-2.59272-.32068c-5.14977-1.30239-7.67572-6.08818-7.781-6.29118a.88625.88625 0 011.57343-.81613c.02331.04329 2.28616 4.29477 6.65833 5.3913 2.95654.73874 6.2493-.09912 9.77441-2.509a.887.887 0 111.00043 1.46511A15.46431 15.46431 0 01331.67371 633.41182zM339.73355 598.70821c.4631 2.30614 2.30931 3.94935 4.22356 3.67831 1.98086-.28341 3.26026-2.52913 2.77384-5.01654-.48625-2.49043-2.53071-4.12746-4.49143-3.65358C340.3562 594.16856 339.27505 596.40048 339.73355 598.70821zM314.81974 602.18209c.51416 2.56164 2.56639 4.3893 4.696 4.08876 2.20083-.31434 3.62106-2.80953 3.082-5.5756-.54208-2.76924-2.81571-4.58754-4.99164-4.05941C315.512 597.13763 314.30874 599.61569 314.81974 602.18209zM334.12386 619.44635a14.54882 14.54882 0 01-3.10991-.2601.88671.88671 0 11.52337-1.69443c1.0656.32686 6.04345.27421 6.6661-.48784-.26343-.412-.60092-1.0285-1.07021-1.88174a72.78291 72.78291 0 01-4.33046-9.30514.88743.88743 0 111.65257-.64738 70.41872 70.41872 0 004.23435 9.09753 20.6299 20.6299 0 011.12746 2.2473 1.56565 1.56565 0 01-.31434 1.69586C338.61228 619.17372 336.18069 619.44635 334.12386 619.44635zM306.33867 592.67411a1.7742 1.7742 0 01-1.2158-3.06518 19.19731 19.19731 0 0117.19607-4.654 1.774 1.774 0 01-.89972 3.432 15.6081 15.6081 0 00-13.86333 3.80392A1.76811 1.76811 0 01306.33867 592.67411zM350.08414 587.88214a1.75956 1.75956 0 01-1.11984-.40109c-5.65917-4.62624-12.18428-1.96389-12.45992-1.8478a1.77385 1.77385 0 01-1.39548-3.26168c.35462-.15035 8.74592-3.65833 16.09969 2.365a1.77337 1.77337 0 01-1.12445 3.14559z" class="color161228 svgShape"/><path fill="#4d4d4d" d="M997.96189,1000.23737H139.429a1.586,1.586,0,0,1,0-3.17192H997.96189a1.586,1.586,0,0,1,0,3.17192Z" class="color4d4d4d svgShape"/></svg>