<?xml version="1.0" standalone="no"?>
<!DOCTYPE svg PUBLIC "-//W3C//DTD SVG 20010904//EN"
 "http://www.w3.org/TR/2001/REC-SVG-20010904/DTD/svg10.dtd">
<svg version="1.0" xmlns="http://www.w3.org/2000/svg" style="border-radius:100%;"
 width="32px" height="32px" viewBox="0 0 1280.000000 1280.000000"
 preserveAspectRatio="xMidYMid meet">

<g transform="translate(0.000000,1280.000000) scale(0.100000,-0.100000)"
fill="#0594d1" stroke="">
<path d="M0 6400 l0 -6400 6400 0 6400 0 0 6400 0 6400 -6400 0 -6400 0 0
-6400z m4426 3384 c46 -6 59 -13 119 -70 37 -35 72 -64 76 -64 5 0 9 -6 9 -12
0 -7 25 -35 56 -63 31 -27 63 -58 72 -68 62 -69 264 -267 272 -267 5 0 10 -5
10 -10 0 -13 237 -250 250 -250 6 0 10 -4 10 -10 0 -13 308 -320 320 -320 6 0
20 -6 31 -12 17 -10 23 -10 26 0 3 6 9 12 14 12 5 0 257 248 560 551 394 394
563 556 592 570 40 18 87 19 1270 19 1244 0 1311 -2 1324 -36 2 -7 -5 -23 -16
-35 -12 -13 -21 -26 -21 -31 0 -4 -314 -320 -697 -703 -384 -383 -702 -700
-708 -706 -5 -5 -214 -214 -463 -464 -419 -420 -456 -455 -487 -455 -45 0 -85
16 -85 34 0 9 -16 19 -37 25 -51 14 -60 14 -67 -4 -4 -11 6 -22 29 -36 19 -12
35 -25 35 -30 0 -5 39 -47 88 -94 48 -47 92 -90 97 -96 6 -5 35 -35 65 -65 30
-30 60 -59 65 -65 6 -6 23 -23 39 -37 15 -15 33 -33 40 -40 6 -7 19 -22 30
-32 10 -10 23 -23 30 -29 6 -7 63 -64 127 -129 64 -64 125 -124 135 -134 11
-9 42 -41 69 -72 28 -31 56 -56 63 -56 6 0 12 -4 12 -8 0 -5 40 -49 90 -98 49
-49 95 -95 102 -102 44 -44 117 -115 143 -139 l30 -28 203 203 c112 111 208
202 213 202 5 0 9 5 9 11 0 6 26 35 58 65 31 30 60 58 64 62 118 118 390 390
398 397 6 6 35 36 64 67 30 32 59 58 64 58 6 0 13 9 17 20 3 11 21 30 38 42
18 12 38 28 45 35 7 7 23 15 35 18 12 3 580 4 1262 3 l1240 -3 3 -68 c3 -65 2
-68 -24 -77 -14 -6 -28 -19 -31 -30 -3 -11 -9 -20 -14 -20 -6 0 -337 -328
-395 -392 -7 -7 -55 -55 -108 -105 -53 -51 -96 -97 -96 -103 0 -5 -4 -10 -9
-10 -4 0 -77 -70 -162 -155 -185 -186 -162 -163 -231 -230 -32 -31 -58 -59
-58 -64 0 -4 -11 -13 -24 -19 -13 -6 -32 -24 -42 -41 -10 -16 -26 -32 -36 -35
-11 -2 -22 -14 -25 -25 -3 -12 -9 -21 -13 -21 -12 0 -270 -259 -270 -271 0 -5
-5 -9 -10 -9 -13 0 -320 -308 -320 -321 0 -5 -4 -9 -10 -9 -13 0 -250 -237
-250 -250 0 -6 -4 -10 -10 -10 -5 0 -68 -60 -139 -133 -72 -72 -135 -136 -141
-142 -10 -9 -312 -311 -328 -327 -4 -5 -62 -62 -129 -128 -68 -66 -123 -125
-123 -130 0 -6 -4 -10 -9 -10 -13 0 -141 -127 -141 -140 0 -5 -4 -10 -10 -10
-12 0 -1190 -1177 -1190 -1190 0 -6 -4 -10 -10 -10 -5 0 -120 -110 -254 -245
-135 -135 -250 -245 -256 -245 -5 0 -10 -9 -10 -20 0 -20 -7 -20 -1310 -20
-1249 0 -1310 1 -1310 18 0 10 12 32 27 49 16 17 36 43 46 57 10 14 24 26 32
26 8 0 15 5 15 10 0 13 1047 1060 1060 1060 6 0 10 5 10 11 0 14 106 119 120
119 5 0 10 5 10 11 0 13 516 529 530 529 5 0 10 4 10 10 0 17 510 520 528 520
37 0 84 -20 103 -44 21 -27 44 -32 68 -17 11 7 4 20 -35 60 -27 27 -58 60 -70
73 -11 13 -29 30 -40 39 -10 9 -72 70 -136 135 -108 110 -275 278 -306 307 -7
6 -36 36 -65 66 -29 29 -74 74 -101 100 -26 25 -116 115 -200 200 -83 85 -159
161 -169 170 -10 9 -41 38 -68 64 -45 43 -53 48 -82 42 -21 -5 -54 -30 -99
-76 -38 -38 -72 -69 -76 -69 -5 0 -14 -10 -21 -23 -6 -12 -25 -31 -42 -42 -16
-11 -32 -28 -35 -38 -3 -10 -17 -23 -30 -29 -13 -6 -24 -15 -24 -19 0 -9 -179
-189 -189 -189 -4 0 -14 -13 -23 -28 -9 -15 -28 -34 -42 -42 -14 -7 -26 -17
-26 -22 0 -8 -94 -104 -108 -110 -4 -2 -18 -18 -31 -35 -12 -18 -29 -33 -37
-33 -8 0 -14 -4 -14 -8 0 -5 -25 -33 -55 -63 -68 -67 -74 -73 -109 -107 -15
-15 -33 -33 -40 -40 -6 -7 -19 -21 -30 -30 -10 -9 -24 -23 -30 -31 -6 -7 -22
-23 -35 -35 -13 -11 -36 -33 -52 -49 l-28 -27 -1283 0 c-1276 0 -1283 0 -1296
20 -10 17 -9 26 4 53 10 17 184 200 388 404 204 205 376 377 381 383 209 213
1553 1545 1570 1556 21 14 32 15 73 4 28 -7 55 -21 68 -37 16 -21 25 -24 50
-19 l30 7 -58 62 c-31 34 -61 65 -65 70 -347 343 -603 602 -603 608 0 5 -5 9
-10 9 -6 0 -34 25 -63 56 -28 31 -58 61 -65 68 -8 6 -25 22 -38 36 -13 14 -27
28 -31 33 -5 4 -368 367 -808 806 -441 440 -810 816 -820 836 l-20 37 24 19
c23 19 54 19 1250 19 674 0 1249 -3 1277 -6z"/>
<path d="M6795 7480 c-3 -6 1 -13 10 -16 19 -8 30 0 20 15 -8 14 -22 14 -30 1z"/>
</g>
</svg>
